<?xml version="1.0" encoding="utf-8"?>
<!-- Generator: Adobe Illustrator 27.5.0, SVG Export Plug-In . SVG Version: 6.00 Build 0)  -->
<svg version="1.1" xmlns="http://www.w3.org/2000/svg" xmlns:xlink="http://www.w3.org/1999/xlink" x="0px" y="0px"
	 viewBox="0 0 500 500" style="enable-background:new 0 0 500 500;" xml:space="preserve">
<g id="BACKGROUND">
</g>
<g id="OBJECTS">
	<g>
		<ellipse style="opacity:0.3;fill:#7972D9;" cx="246" cy="450.333" rx="211" ry="38"/>
	</g>
	<g>
		<g>
			<g>
				
					<line style="fill:none;stroke:#191939;stroke-width:9.311;stroke-miterlimit:10;" x1="376.228" y1="29" x2="376.228" y2="435.282"/>
				
					<line style="fill:none;stroke:#191939;stroke-width:3.7244;stroke-miterlimit:10;" x1="321.759" y1="29.931" x2="396.247" y2="29.931"/>
			</g>
			<g>
				<polyline style="fill:none;stroke:#191939;stroke-width:5.5866;stroke-miterlimit:10;" points="338.984,452.108 
					338.984,441.866 376.228,421.282 413.472,441.866 413.472,454.902 				"/>
				<g>
					<circle style="fill:#FFFFFF;stroke:#7972D9;stroke-width:4.591;stroke-miterlimit:10;" cx="339.106" cy="456.887" r="7.384"/>
					<circle style="fill:#FFFFFF;stroke:#7972D9;stroke-width:4.591;stroke-miterlimit:10;" cx="413.301" cy="456.887" r="7.384"/>
				</g>
			</g>
		</g>
		<g>
			<g>
				<g>
					<path style="fill:#FFCDCC;" d="M361.589,82.073c0,7.714-6.253,13.966-13.966,13.966h-11.794
						c-7.714,0-13.966-6.253-13.966-13.966V51.036c0-7.713,6.253-13.967,13.966-13.967h11.794c7.714,0,13.966,6.253,13.966,13.967
						V82.073z"/>
					<path style="fill:#FFCDCC;" d="M345.14,42.966c0,1.886-1.529,3.414-3.414,3.414l0,0c-1.885,0-3.414-1.528-3.414-3.414V26.827
						c0-1.885,1.529-3.414,3.414-3.414l0,0c1.885,0,3.414,1.528,3.414,3.414V42.966z"/>
				</g>
				<path style="fill:#F47676;" d="M326.053,55.692v26.381c0,5.391,4.385,9.776,9.777,9.776h11.793c5.391,0,9.777-4.386,9.777-9.776
					V55.692H326.053z"/>
			</g>
			<g>
				<g>
					<path style="fill:none;stroke:#FFCDCC;stroke-width:3.7244;stroke-miterlimit:10;" d="M342.01,97.203
						c0,0,11.929,65.475-14.142,78.51c-26.071,13.035-40.151,20.484-38.232,47.952C291.555,251.133,279.384,293.104,217,281"/>
					<rect x="336.191" y="93.246" style="fill:#FFCDCC;" width="11.639" height="7.914"/>
				</g>
				<rect x="285.911" y="210.164" style="fill:#191939;" width="7.449" height="27.002"/>
			</g>
		</g>
		<g>
			<g>
				<polygon style="fill:#7972D9;" points="360.865,270.065 403.956,270.065 415.706,296.136 416.02,309.171 361.808,309.171 				
					"/>
				<polygon style="opacity:0.3;fill:#191939;" points="360.865,270.065 370.292,270.065 380.032,296.136 415.706,296.136 
					416.02,309.171 361.808,309.171 				"/>
			</g>
			<g>
				<g>
					<polygon style="opacity:0.3;fill:#191939;" points="389.371,271.437 400.258,271.437 403.178,277.269 391.761,277.269 					"/>
					<polygon style="fill:#FFFFFF;" points="391.362,271.437 402.249,271.437 405.17,277.269 393.752,277.269 					"/>
				</g>
				<g>
					<polygon style="opacity:0.3;fill:#191939;" points="373.041,271.437 383.928,271.437 386.848,277.269 375.431,277.269 					"/>
					<polygon style="fill:#FFFFFF;" points="375.033,271.437 385.919,271.437 388.84,277.269 377.422,277.269 					"/>
				</g>
				<g>
					<polygon style="opacity:0.3;fill:#191939;" points="392.67,279.67 403.557,279.67 406.478,285.502 395.06,285.502 					"/>
					<polygon style="fill:#FFFFFF;" points="394.662,279.67 405.548,279.67 408.469,285.502 397.051,285.502 					"/>
				</g>
				<g>
					<polygon style="opacity:0.3;fill:#191939;" points="376.34,279.67 387.227,279.67 390.148,285.502 378.73,285.502 					"/>
					<polygon style="fill:#FFFFFF;" points="378.332,279.67 389.218,279.67 392.139,285.502 380.722,285.502 					"/>
				</g>
				<g>
					<polygon style="opacity:0.3;fill:#191939;" points="395.733,287.388 406.62,287.388 409.541,293.22 398.123,293.22 					"/>
					<polygon style="fill:#FFFFFF;" points="397.725,287.388 408.611,287.388 411.532,293.22 400.114,293.22 					"/>
				</g>
				<g>
					<polygon style="opacity:0.3;fill:#191939;" points="379.403,287.388 390.29,287.388 393.211,293.22 381.793,293.22 					"/>
					<polygon style="fill:#FFFFFF;" points="381.395,287.388 392.281,287.388 395.202,293.22 383.785,293.22 					"/>
				</g>
			</g>
		</g>
	</g>
	<g>
		<g>
			<g>
				<g>
					<g>
						<path style="fill:#191939;" d="M164.519,427.391c0,0,2.881,41.197,8.797,43.253c5.204,1.809,5.773,2.016,5.773,2.016
							l3.757-56.266L164.519,427.391z"/>
						<path style="fill:#13132D;" d="M180.58,451.305l2.267-34.911l-18.328,10.997c0,0,0.592,8.264,1.772,17.574
							C171.222,446.714,175.999,449.026,180.58,451.305z"/>
					</g>
					<path style="fill:#13132D;" d="M175.424,416.211L175.424,416.211L175.424,416.211l18.328,10.997c0,0-0.003,0.038-0.008,0.105
						c-0.002,0.032-0.007,0.086-0.01,0.133c-0.004,0.048-0.006,0.084-0.011,0.148c-0.308,4.083-3.23,40.79-8.769,42.867
						c-5.865,2.199-5.865,2.199-5.865,2.199l-1.398-21.538h0L175.424,416.211z"/>
				</g>
				<g>
					<g>
						<path style="fill:#191939;" d="M79.113,394.877c0,0,2.881,41.197,8.797,43.253c5.204,1.809,5.773,2.016,5.773,2.016
							l3.757-56.266L79.113,394.877z"/>
						<path style="fill:#13132D;" d="M95.173,418.791l2.267-34.911l-18.328,10.997c0,0,0.592,8.264,1.772,17.574
							C85.816,414.2,90.592,416.512,95.173,418.791z"/>
					</g>
					<path style="fill:#13132D;" d="M90.018,383.697L90.018,383.697L90.018,383.697l18.328,10.996c0,0-0.003,0.038-0.008,0.105
						c-0.002,0.032-0.007,0.086-0.01,0.133c-0.004,0.048-0.006,0.084-0.011,0.148c-0.308,4.084-3.23,40.79-8.768,42.867
						c-5.865,2.199-5.865,2.199-5.865,2.199l-1.399-21.538l0,0L90.018,383.697z"/>
				</g>
				<g>
					<g>
						<path style="fill:#191939;" d="M267.154,397.809c0,0,2.881,41.197,8.797,43.253c5.204,1.809,5.773,2.016,5.773,2.016
							l3.757-56.266L267.154,397.809z"/>
						<path style="fill:#13132D;" d="M283.215,421.724l2.267-34.911l-18.328,10.997c0,0,0.592,8.264,1.772,17.574
							C273.857,417.133,278.634,419.444,283.215,421.724z"/>
					</g>
					<path style="fill:#13132D;" d="M278.059,386.629L278.059,386.629L278.059,386.629l18.328,10.997c0,0-0.003,0.038-0.008,0.105
						c-0.002,0.032-0.006,0.086-0.01,0.133c-0.004,0.048-0.006,0.084-0.011,0.148c-0.308,4.083-3.23,40.79-8.769,42.867
						c-5.865,2.199-5.865,2.199-5.865,2.199l-1.399-21.538l0,0L278.059,386.629z"/>
				</g>
			</g>
			<g>
				<path style="fill:#FFA943;" d="M68.483,206.652c0,0,93.57-26.124,135.357-17.327c0,0,23.727-3.933,22.627,73.043l-2.199,36.289
					c0,0,68.912-13.563,72.211,21.627c3.299,35.189,2.932,94.571,2.932,94.571l-117.663,33.98l-79.175-154.942L68.483,206.652z"/>
				<path style="fill:#ED902B;" d="M224.267,298.657l0.236-3.901c-31.186,5.255-61.109,16.232-91.104,25.964
					c-7.919,2.569-15.816,5.141-23.695,7.77l65.078,66.937l117.582-43.956c-0.197-0.819-0.877-5.851-3.218-30.821
					C285.848,285.461,224.267,298.657,224.267,298.657z"/>
			</g>
		</g>
		<g>
			<g>
				<g>
					<g>
						<g>
							<path style="fill:#FFCDCC;" d="M255.549,357.702c0,0-22.921,22.185-24.056,46.298c-1.135,24.113,1.168,57.952,1.168,57.952
								s56.302,9.841,12.151-4.127c0,0,37.566-80.343,29.913-100.768C267.072,336.63,255.549,357.702,255.549,357.702z"/>
							<path style="opacity:0.3;fill:#F47676;" d="M231.493,404c-0.063,1.328-0.112,2.72-0.153,4.148
								c10.736,3.439,21.838,5.053,32.692,3.158c7.836-21.598,14.307-44.604,10.693-54.25c-7.653-20.426-19.176,0.646-19.176,0.646
								S232.628,379.887,231.493,404z"/>
						</g>
						<path style="fill:#191939;" d="M250.961,459.595c0,0,15.224,4.862,15.59,7.062c0.365,2.199-21.443,2.29-36.136-2.36
							l1.079-3.849C231.494,460.447,259.577,464.395,250.961,459.595z"/>
					</g>
					<path style="fill:#13132D;" d="M273.485,337.623c15.19,16.371-2.406,67.115-2.406,67.115s-25.159,3.534-43.335-6.559
						l7.886-47.472C235.631,350.707,245.4,307.355,273.485,337.623z"/>
				</g>
				<g>
					<g>
						<g>
							<path style="fill:#FFCDCC;" d="M274.707,313.95c0,0-1.771,31.849,13.764,50.326c15.535,18.477,46.122,47.713,46.122,47.713
								s26.032-53.218,0.195-17.231c0,0-26.953-84.497-46.438-94.3C268.865,290.655,274.707,313.95,274.707,313.95z"/>
							<path style="opacity:0.3;fill:#F47676;" d="M288.471,364.276c0.856,1.018,1.764,2.073,2.704,3.15
								c10.218-4.762,19.466-11.114,26.15-19.874c-8.907-21.179-19.773-42.465-28.974-47.094
								c-19.485-9.804-13.643,13.492-13.643,13.492S272.936,345.8,288.471,364.276z"/>
						</g>
						<path style="fill:#191939;" d="M336.799,391.028c0,0,9.53-12.829,11.73-12.463c2.199,0.367-4.778,21.029-13.935,33.424
							l-3.293-2.267C331.301,409.722,344.13,384.43,336.799,391.028z"/>
					</g>
					<path style="fill:#191939;" d="M161.953,315.885c0,0,97.137-39.954,117.663-31.157c20.527,8.797,39.588,54.25,39.588,54.25
						s-17.595,18.328-38.122,21.627l-17.228-27.491c0,0-51.567,47.544-87.606,39.588c-28.225-6.231-35.556-53.517-35.556-53.517
						L161.953,315.885z"/>
				</g>
			</g>
			<g>
				<g>
					<g>
						<path style="fill:#FFCDCC;" d="M133.727,180.359c0,0,9.63,25.81,3.467,34.67c-6.163,8.86-25.039-5.778-30.047,15.409
							c-5.008,21.187,55.087,55.087,55.087,55.087l38.137-3.852c0,0,4.237-66.258-7.704-68.184
							c-11.942-1.926-26.965,0.77-26.965,0.77l-2.696-16.95L133.727,180.359z"/>
						<path style="opacity:0.3;fill:#F47676;" d="M165.048,210.384l-2.247-14.729l-25.881-16.394
							C139.625,193.843,151.286,206.868,165.048,210.384z"/>
					</g>
					<g>
						<path style="fill:#5858C6;" d="M124.859,174.744c0,0-10.652-10.965-17.231,1.253c0,0,6.266,9.712,18.171,3.133
							c0,0-12.845,1.88-11.905,15.351c0,0,14.411-0.313,16.291-14.098C132.064,166.598,124.859,174.744,124.859,174.744z"/>
						<g>
							<path style="fill:#FFCDCC;" d="M161.956,130.011c0,0,25.684-0.741,25.684,36.699s-20.69,48.19-44.59,24.095
								c-4.933-4.974-8.256-10.595-10.168-16.362C125.531,152.273,139.026,127.952,161.956,130.011z"/>
							<g>
								<path style="fill:#7972D9;" d="M123.605,170.358c0,0-13.471-38.848,16.604-49.499c28.111-9.956,40.727,13.471,44.173,25.063
									c0,0-8.182-10.924-29.449-2.506c-15.038,5.952-19.737,30.076-19.737,30.076L123.605,170.358z"/>
								<path style="fill:#5858C6;" d="M135.63,160.253c-5.919-2.133-11.869-6.513-13.406-12.94
									c-0.366-1.531-0.627-3.106-0.795-4.701c-2.736,13.572,2.176,27.746,2.176,27.746l11.592,3.133c0,0,1.11-5.675,3.963-12.197
									C137.968,161.009,136.788,160.671,135.63,160.253z"/>
							</g>
						</g>
						<path style="fill:#FFCDCC;" d="M135.001,170.788c0,0-5.19-14.086-12.604-6.302c-7.414,7.785,11.862,24.837,14.828,18.906
							C140.19,177.46,135.001,170.788,135.001,170.788z"/>
					</g>
				</g>
				<g>
					<g>
						<path style="fill:#F47676;" d="M173.18,164.561c0.428,1.236,0.883,2.425,1.376,3.593c0.244,0.584,0.494,1.162,0.761,1.731
							c0.268,0.568,0.525,1.139,0.824,1.688c0.271,0.563,0.58,1.105,0.879,1.651c0.333,0.527,0.614,1.084,0.964,1.599
							c0.326,0.531,0.689,1.035,1.035,1.555c0.345,0.521,0.754,0.992,1.108,1.514l0.399,0.589l-0.465,0.343
							c-1.69,1.245-3.417,2.446-5.248,3.521c1.391-1.604,2.888-3.083,4.421-4.517l-0.067,0.932c-0.461-0.471-0.934-0.94-1.348-1.456
							c-0.428-0.506-0.838-1.029-1.195-1.587c-0.384-0.541-0.722-1.112-1.043-1.692c-0.296-0.592-0.622-1.17-0.867-1.785
							c-0.26-0.608-0.482-1.23-0.698-1.853c-0.181-0.636-0.368-1.266-0.5-1.912C173.25,167.19,173.09,165.873,173.18,164.561z"/>
					</g>
					<g>
						<path style="fill:#F47676;" d="M159.895,188.411c0,0,0.31,0.052,0.853,0.144c0.539,0.091,1.306,0.206,2.218,0.327
							c0.455,0.053,0.948,0.11,1.469,0.171c0.517,0.071,1.07,0.079,1.632,0.144c0.565,0.039,1.149,0.049,1.738,0.077
							c0.59-0.004,1.191,0.039,1.787-0.015c0.598-0.009,1.196-0.025,1.779-0.101c0.292-0.034,0.584-0.051,0.871-0.076
							c0.285-0.043,0.566-0.085,0.843-0.127c0.558-0.072,1.091-0.172,1.595-0.288c0.508-0.103,0.992-0.199,1.424-0.338
							c0.443-0.121,0.85-0.231,1.21-0.33c0.348-0.132,0.662-0.233,0.921-0.32c0.52-0.17,0.832-0.257,0.832-0.257
							s-0.236,0.206-0.673,0.549c-0.22,0.169-0.487,0.38-0.806,0.605c-0.326,0.21-0.711,0.419-1.135,0.645
							c-0.213,0.11-0.431,0.24-0.667,0.348c-0.242,0.094-0.492,0.191-0.749,0.29c-0.514,0.207-1.063,0.413-1.656,0.533
							c-0.586,0.152-1.193,0.309-1.827,0.364c-0.628,0.1-1.271,0.141-1.914,0.167c-0.644,0.036-1.285-0.027-1.916-0.044
							c-0.63-0.038-1.244-0.144-1.836-0.23c-1.179-0.216-2.259-0.502-3.151-0.843C160.937,189.168,159.895,188.411,159.895,188.411z
							"/>
					</g>
					<g>
						<path style="fill:#13132D;" d="M173.569,162.177c0,0-0.027-0.307,0.033-0.823c0.055-0.518,0.202-1.242,0.517-2.075
							c0.316-0.83,0.828-1.757,1.592-2.643c0.394-0.433,0.834-0.87,1.369-1.236c0.527-0.374,1.125-0.697,1.781-0.92
							c0.652-0.222,1.354-0.349,2.041-0.343c0.344-0.004,0.683,0.015,1.008,0.081c0.331,0.042,0.641,0.128,0.94,0.226
							c0.598,0.191,1.126,0.463,1.579,0.76c0.454,0.298,0.84,0.621,1.158,0.947c0.32,0.324,0.582,0.643,0.784,0.947
							c0.218,0.286,0.377,0.56,0.493,0.795c0.24,0.462,0.341,0.745,0.341,0.745s-0.305-0.076-0.774-0.243
							c-0.472-0.161-1.127-0.395-1.868-0.604c-0.365-0.113-0.757-0.211-1.152-0.291c-0.395-0.085-0.798-0.141-1.193-0.165
							c-0.396-0.026-0.783-0.013-1.161,0.034c-0.377,0.055-0.752,0.124-1.121,0.267c-1.491,0.478-3.03,1.724-4.236,2.736
							C174.422,161.456,173.569,162.177,173.569,162.177z"/>
					</g>
					<g>
						<path style="fill:#13132D;" d="M167.761,162.122c0,0-0.374-0.196-1.028-0.538c-0.652-0.324-1.561-0.786-2.657-1.222
							c-1.087-0.448-2.354-0.873-3.678-1.115c-0.664-0.102-1.338-0.18-2.012-0.176c-0.671,0.027-1.347,0.054-2,0.229
							c-0.662,0.126-1.301,0.366-1.931,0.634c-0.619,0.292-1.235,0.609-1.807,0.989c-0.582,0.363-1.122,0.781-1.646,1.179
							c-0.505,0.423-1.006,0.816-1.438,1.227c-0.896,0.787-1.644,1.502-2.168,2.01c-0.526,0.508-0.866,0.788-0.866,0.788
							s0.084-0.42,0.301-1.137c0.105-0.36,0.24-0.798,0.458-1.269c0.198-0.483,0.427-1.032,0.757-1.59
							c0.3-0.577,0.703-1.16,1.148-1.774c0.474-0.591,0.997-1.213,1.642-1.774c0.627-0.575,1.362-1.104,2.176-1.547
							c0.814-0.444,1.717-0.789,2.659-0.994c0.939-0.22,1.915-0.259,2.85-0.2c0.939,0.063,1.83,0.283,2.652,0.558
							c1.637,0.584,2.954,1.465,3.933,2.336c0.984,0.873,1.648,1.733,2.068,2.356C167.593,161.72,167.761,162.122,167.761,162.122z"
							/>
					</g>
					<g>
						<path style="fill:#13132D;" d="M177.007,168.277c0,0,0.576,0.662,1.46,1.448c0.221,0.196,0.471,0.391,0.732,0.581
							c0.259,0.194,0.552,0.36,0.847,0.514c0.296,0.156,0.61,0.27,0.928,0.364c0.321,0.083,0.649,0.13,0.984,0.142l0.031,0.003
							l0.008,0.001l0.004,0c0.076-0.003-0.099,0.005-0.08,0.003l0.019-0.001l0.077-0.006l0.154-0.011l0.308-0.023
							c0.123-0.051,0.195-0.055,0.314-0.097c0.229-0.117,0.471-0.235,0.657-0.469c0.408-0.422,0.683-1.041,0.889-1.587
							c0.196-0.554,0.337-1.053,0.433-1.407c0.095-0.361,0.15-0.567,0.15-0.567s0.087,0.2,0.182,0.568
							c0.09,0.368,0.195,0.905,0.179,1.573c-0.009,0.334-0.039,0.703-0.137,1.093c-0.105,0.388-0.235,0.815-0.514,1.218
							c-0.245,0.417-0.669,0.786-1.154,1.045c-0.249,0.123-0.581,0.218-0.851,0.277l-0.307,0.03l-0.154,0.015l-0.077,0.007
							l-0.019,0.002l-0.095,0.003l-0.012-0.001l-0.046-0.003c-0.492-0.024-0.983-0.105-1.437-0.271
							c-0.452-0.166-0.869-0.389-1.222-0.655c-0.36-0.258-0.658-0.559-0.909-0.857c-0.262-0.29-0.461-0.598-0.624-0.886
							C177.06,169.167,177.007,168.277,177.007,168.277z"/>
					</g>
					<g>
						<path style="fill:#13132D;" d="M154.468,170.426c0,0,0.576,0.662,1.46,1.448c0.221,0.196,0.471,0.391,0.732,0.581
							c0.26,0.194,0.552,0.36,0.847,0.514c0.296,0.156,0.61,0.27,0.928,0.364c0.321,0.083,0.649,0.13,0.984,0.142l0.031,0.003
							l0.008,0.001l0.004,0.001c0.076-0.003-0.1,0.005-0.08,0.003l0.019-0.001l0.077-0.006l0.154-0.011l0.308-0.023
							c0.123-0.051,0.195-0.055,0.314-0.097c0.229-0.117,0.471-0.235,0.657-0.469c0.408-0.422,0.683-1.041,0.889-1.588
							c0.196-0.554,0.337-1.053,0.433-1.407c0.095-0.361,0.15-0.567,0.15-0.567s0.087,0.2,0.182,0.568
							c0.09,0.368,0.195,0.905,0.179,1.573c-0.009,0.334-0.039,0.703-0.137,1.092c-0.105,0.388-0.235,0.815-0.514,1.218
							c-0.245,0.417-0.669,0.786-1.154,1.045c-0.248,0.123-0.581,0.218-0.85,0.277l-0.307,0.03l-0.154,0.015l-0.077,0.008
							l-0.019,0.002l-0.095,0.003l-0.011-0.001l-0.046-0.003c-0.492-0.024-0.983-0.105-1.437-0.27
							c-0.452-0.166-0.869-0.389-1.222-0.655c-0.36-0.258-0.658-0.559-0.909-0.857c-0.262-0.289-0.461-0.597-0.624-0.886
							C154.521,171.316,154.468,170.426,154.468,170.426z"/>
					</g>
					<g>
						<path style="fill:#F47676;" d="M133.164,182.107c-0.468-0.139-0.942-0.436-1.183-0.951c-0.041-0.13-0.1-0.266-0.114-0.405
							c-0.006-0.138-0.04-0.288-0.01-0.422c0.024-0.134,0.027-0.286,0.078-0.41l0.136-0.389c0.129-0.227,0.235-0.49,0.395-0.692
							c0.149-0.215,0.299-0.437,0.478-0.619c0.335-0.4,0.712-0.738,1.083-1.093l-0.193,0.569c-0.675-1.949-1.452-3.9-2.366-5.727
							c-0.454-0.914-0.945-1.81-1.526-2.606c-0.565-0.798-1.211-1.55-1.951-1.965c-0.368-0.205-0.739-0.333-1.118-0.353
							l-0.287,0.008c-0.027,0-0.231,0.04-0.338,0.059c-0.191,0.049-0.314,0.097-0.488,0.185c-0.289,0.178-0.497,0.441-0.628,0.83
							c-0.13,0.385-0.153,0.861-0.122,1.34c0.046,0.973,0.319,1.978,0.612,2.972c0.313,0.992,0.673,1.983,1.079,2.965
							c-0.653-0.841-1.228-1.746-1.716-2.705c-0.495-0.958-0.903-1.971-1.12-3.094c-0.091-0.564-0.139-1.163-0.004-1.802
							c0.122-0.631,0.508-1.322,1.113-1.719c0.279-0.185,0.642-0.345,0.961-0.433c0.151-0.034,0.204-0.056,0.436-0.101l0.502-0.047
							c0.679-0.017,1.344,0.178,1.895,0.484c0.554,0.303,1.034,0.684,1.439,1.101c0.407,0.417,0.782,0.852,1.096,1.316
							c0.643,0.922,1.148,1.896,1.612,2.878c0.441,0.993,0.818,2.003,1.154,3.023c0.32,1.029,0.603,2.052,0.825,3.117l0.078,0.372
							l-0.271,0.197c-0.38,0.276-0.777,0.542-1.119,0.854c-0.187,0.146-0.336,0.314-0.502,0.475
							c-0.178,0.156-0.285,0.344-0.435,0.519l-0.16,0.285c-0.064,0.095-0.072,0.197-0.117,0.297
							c-0.05,0.101-0.038,0.202-0.061,0.308c-0.015,0.105,0.011,0.207,0.017,0.316C132.418,181.456,132.739,181.857,133.164,182.107
							z"/>
					</g>
				</g>
			</g>
			<g>
				<g>
					<path style="fill:#FFFFFF;" d="M188.345,211.051c0,0,14.295-1.466,22.726,12.829c8.431,14.296,12.096,22.726,12.096,22.726
						l-23.093,7.331L188.345,211.051z"/>
					<path style="opacity:0.2;fill:#7972D9;" d="M210.117,231.948c-3.336,2.124-6.792,4.09-10.026,6.369
						c-1.212,0.854-2.389,1.748-3.567,2.64l3.55,12.981l23.093-7.331c0,0-2.759-6.339-8.979-17.331
						C212.824,230.213,211.449,231.1,210.117,231.948z"/>
				</g>
				<g>
					<path style="fill:#FFFFFF;" d="M133.362,204.819l34.823,2.199l0.733,6.598c0,0,30.79-9.164,34.456,4.765
						c3.666,13.929,5.865,82.108,5.865,82.108l-63.047,19.061c0,0-38.488-26.758-44.353-81.741
						c-1.388-13.01,5.132-19.794,29.691-20.894L133.362,204.819z"/>
					<path style="opacity:0.2;fill:#7972D9;" d="M151.379,256.727c-7.861-1.599-15.677-3.498-23.334-5.899
						c-5.64-1.768-11.389-3.913-15.794-8.008c-2.297-2.135-4.11-4.673-6.187-7.009c-1.372-1.543-2.751-3.081-4.109-4.636
						c-0.357,1.997-0.374,4.207-0.115,6.634c5.865,54.983,33.356,86.506,33.356,86.506l74.044-23.826c0,0-1.921-23.944-2.445-39.892
						C188.311,261.917,169.605,260.433,151.379,256.727z"/>
				</g>
			</g>
		</g>
		<g>
			<path style="fill:#FFA943;" d="M91.575,389.562c0,0,10.63-186.209,8.431-92.738c0,0,103.368,19.427,109.966,42.52
				c6.598,23.093-5.132,95.194-5.132,95.194L91.575,389.562z"/>
			<path style="fill:#ED902B;" d="M68.483,403.857c0,0-22.726-186.209-7.331-194.273c23.419-12.267,46.552,10.997,44.353,104.468
				c0,0,65.979,16.495,72.577,39.588c6.598,23.093,3.665,95.194,3.665,95.194L68.483,403.857z"/>
		</g>
		<g>
			<g>
				<path style="fill:#FFFFFF;" d="M190.545,251.738l-2.199-16.862c0,0,25.292,2.566,48.385,18.328c0,0-0.733-17.595,6.965-31.524
					l0.733,24.926l-6.598,31.89L190.545,251.738z"/>
				<path style="opacity:0.3;fill:#FFA943;" d="M190.545,251.738l-2.199-16.862c0,0,25.292,2.566,48.385,18.328
					c0,0-0.733-17.595,6.965-31.524l0.733,24.926l-6.598,31.89L190.545,251.738z"/>
				<g>
					<polygon style="fill:#4D4DBC;" points="241.129,248.439 246.261,219.481 249.56,282.528 242.962,301.956 					"/>
					<g>
						<polygon style="fill:#7972D9;" points="191.644,296.824 186.512,238.542 231.232,251.738 241.129,248.439 245.161,304.155 
							235.997,308.92 						"/>
						<polygon style="fill:#5858C6;" points="231.232,251.738 241.129,248.439 245.161,304.155 235.997,308.92 						"/>
					</g>
				</g>
			</g>
			<g>
				<path style="fill:#FFCDCC;" d="M244.061,265.259c0,0,2.47,4.91,4.975,8.461c0.214,3.197,0.464,6.113,0.464,6.113
					c5.167-1.333,10.323-16.571,3.359-23.985c-6.964-7.415-12.829-12.263-2.199,1.426c0,0-13.929-13.118-1.466,2.852
					c0,0-15.395-15.399-1.466,3.992C247.727,264.118,234.531,250.144,244.061,265.259z"/>
				<g>
					<g>
						<path style="fill:#FFCDCC;" d="M109.17,268.233c0,0,13.563,50.584,30.424,57.915c12.636,5.494,45.452-33.356,51.317-46.186
							c0,0,43.986,5.132,10.263-2.566c0,0,34.822,4.399,0.367-4.399c0,0,35.922,4.032,1.1-2.932c0,0,32.623-0.367-8.797-4.399
							c0,0,15.762-19.427-14.662,5.132c-13.148,10.613-27.125,21.993-27.125,21.993s-11.73-53.517-25.292-57.182
							C113.202,231.944,109.17,268.233,109.17,268.233z"/>
						<path style="opacity:0.3;fill:#F47676;" d="M145.171,267.628c-4.678-14.442-11.289-30.094-18.406-32.018
							c-13.562-3.665-17.595,32.623-17.595,32.623s1.575,4.822,4.107,11.78C125.01,279.358,138.094,276.53,145.171,267.628z"/>
					</g>
					<path style="fill:#FFFFFF;" d="M109.536,275.93c0,0-15.395-43.253-2.566-52.05c12.829-8.797,20.894-2.199,28.591,11.73
						s12.096,26.392,12.096,26.392S125.665,277.763,109.536,275.93z"/>
				</g>
			</g>
		</g>
	</g>
</g>
</svg>
