<?xml version="1.0" encoding="utf-8"?>
<!-- Generator: Adobe Illustrator 27.5.0, SVG Export Plug-In . SVG Version: 6.00 Build 0)  -->
<svg version="1.1" xmlns="http://www.w3.org/2000/svg" xmlns:xlink="http://www.w3.org/1999/xlink" x="0px" y="0px"
	 viewBox="0 0 500 500" style="enable-background:new 0 0 500 500;" xml:space="preserve">
<g id="BACKGROUND">
	<rect style="fill:#FFFFFF;" width="500" height="500"/>
</g>
<g id="OBJECTS">
	<g>
		<defs>
			<path id="SVGID_1_" d="M47.734,179.747c1.129-26.558,8.683-52.241,25.476-75.879c63.154-88.896,221.45-86.644,309.042-36.593
				c26.301,15.029,48.926,38.072,57.989,66.572c7.32,23.02,5.43,47.672,5.299,71.751c-0.148,27.149,5.662,47.284,16.805,71.648
				c8.919,19.5,10.794,42.678,7.184,63.52c-7.832,45.223-41.527,81.822-81.96,102.577c-64.263,32.988-166.226,33.392-244.623,14.389
				c-39.622-9.604-77.461-29.044-96.703-56.391c-15.309-21.759-17.68-46.645-12.792-69.563c3.93-18.426,13.224-34.892,20.994-52.268
				c6.228-13.928,3.594-26.035-0.134-41.177C49.465,218.641,46.917,198.964,47.734,179.747z"/>
		</defs>
		<clipPath id="SVGID_00000134930620611687730650000016827119981372080277_">
			<use xlink:href="#SVGID_1_"  style="overflow:visible;"/>
		</clipPath>
		<g style="clip-path:url(#SVGID_00000134930620611687730650000016827119981372080277_);">
			<g>
				<rect x="2.845" y="-1.994" style="fill:#F2D1C8;" width="499.759" height="499.759"/>
				<path style="opacity:0.46;fill:#E8BBB1;" d="M241.153-1.965c0,0,78.807,120.306-59.043,165.878
					C44.26,209.486,2.845,363.95,2.845,363.95V-1.994L241.153-1.965z"/>
				<path style="opacity:0.46;fill:#E8BBB1;" d="M352.402,497.765c0,0-86.862-120.055,37.765-165.513
					c83.903-32.645,112.436-181.949,112.436-181.949v347.462H352.402z"/>
				<path style="opacity:0.46;fill:#E8BBB1;" d="M204.868,497.765c0,0-12.056-198.564-128.917-132.998
					c-35.652,21-31.333,103.012-73.107,74.881c0,58.118,0,58.118,0,58.118H204.868z"/>
			</g>
			<path style="opacity:0.3;fill:#FFFFFF;" d="M370.146,95.546c0,12.521-10.15,22.671-22.671,22.671
				c-12.521,0-22.671-10.15-22.671-22.671c0-12.521,10.15-22.671,22.671-22.671C359.996,72.875,370.146,83.025,370.146,95.546z"/>
		</g>
	</g>
	<g>
		<path style="fill:#AF4646;" d="M322.519,131.416h-6.972c-2.028,0-3.672-1.644-3.672-3.672v-4.164h14.315v4.164
			C326.19,129.772,324.546,131.416,322.519,131.416z"/>
		<path style="fill:#D3D1C5;" d="M333.22,124.041h-27.93c-2.724,0-4.933-2.208-4.933-4.933V71.82c0-2.724,2.208-4.933,4.933-4.933
			h27.93c2.724,0,4.933,2.208,4.933,4.933v47.288C338.153,121.833,335.945,124.041,333.22,124.041z"/>
		<path style="fill:#D66562;" d="M300.358,94.744v24.364c0,2.724,2.208,4.933,4.933,4.933h27.93c2.724,0,4.933-2.208,4.933-4.933
			V94.744H300.358z"/>
		<rect x="308.856" y="41.076" style="fill:#D66562;" width="96.102" height="7.605"/>
		<rect x="350.511" y="48.681" style="fill:#E08080;" width="12.79" height="62.56"/>
		<rect x="347.11" y="110.182" style="fill:#D66562;" width="19.592" height="13.859"/>
		<rect x="353.968" y="124.041" style="fill:#F4E9D3;" width="5.877" height="271.168"/>
		<rect x="303.354" y="98.022" style="fill:#FFF6E7;" width="31.573" height="22.331"/>
		<rect x="310.037" y="74.857" style="fill:#FFF6E7;" width="19.128" height="16.257"/>
		<path style="fill:none;stroke:#D3D1C5;stroke-width:2.0933;stroke-linecap:round;stroke-miterlimit:10;" d="M310.367,66.887
			v-3.713c0-1.895,1.536-3.432,3.432-3.432h10.882c1.895,0,3.432,1.536,3.432,3.432v3.713"/>
		<rect x="350.511" y="48.681" style="fill:#BA5050;" width="12.79" height="4.875"/>
		<rect x="353.968" y="124.041" style="fill:#B7A991;" width="5.877" height="3.286"/>
		<path style="fill:#723C2E;" d="M319.256,63.43L319.256,63.43c-0.955,0-1.729-0.774-1.729-1.728V48.681h3.457v13.021
			C320.984,62.656,320.21,63.43,319.256,63.43z"/>
		<path style="fill:#723C2E;" d="M393.579,63.43L393.579,63.43c-0.955,0-1.728-0.774-1.728-1.728V48.681h3.457v13.021
			C395.307,62.656,394.533,63.43,393.579,63.43z"/>
		<path style="fill:none;stroke:#F4E9D3;stroke-width:6.28;stroke-miterlimit:10;" d="M302.979,422.112v-15.938
			c0-6.055,4.909-10.964,10.964-10.964h85.927c6.055,0,10.964,4.909,10.964,10.964v14.469"/>
		<g>
			
				<ellipse transform="matrix(0.7071 -0.7071 0.7071 0.7071 -182.5236 416.2846)" style="fill:#723C2E;" cx="411.238" cy="428.468" rx="12.628" ry="12.628"/>
			<path style="fill:#F4E9D3;" d="M418.357,428.561c0,3.932-3.187,7.119-7.119,7.119s-7.119-3.187-7.119-7.119
				c0-3.932,3.187-7.119,7.119-7.119S418.357,424.629,418.357,428.561z"/>
		</g>
		<g>
			
				<ellipse transform="matrix(0.8123 -0.5832 0.5832 0.8123 -193.0307 257.134)" style="fill:#723C2E;" cx="302.979" cy="428.468" rx="12.628" ry="12.628"/>
			<path style="fill:#F4E9D3;" d="M310.098,428.561c0,3.932-3.187,7.119-7.119,7.119c-3.932,0-7.119-3.187-7.119-7.119
				c0-3.932,3.187-7.119,7.119-7.119C306.911,421.442,310.098,424.629,310.098,428.561z"/>
		</g>
	</g>
	<g>
		<path style="fill:#7C7061;" d="M311.673,199.231c0,0-5.318,8.025-30.362,7.186C279.939,198.202,303.268,192.027,311.673,199.231z"
			/>
		<path style="fill:#1D1D1B;" d="M428.66,442.915c0,3.029-71.423,5.485-159.528,5.485c-88.105,0-159.528-2.456-159.528-5.485
			c0-3.029,71.423-5.485,159.528-5.485C357.237,437.43,428.66,439.886,428.66,442.915z"/>
		<polygon style="fill:#56221C;" points="327.046,409.19 329.438,441.096 337.434,441.096 340.083,409.19 		"/>
		<polygon style="fill:#56221C;" points="369.895,387.577 365.437,409.19 254.152,409.19 254.152,387.577 		"/>
		<polygon style="fill:#723C2E;" points="164.153,387.577 167.584,409.19 254.152,409.19 254.152,387.577 		"/>
		<path style="fill:#AF4646;" d="M227.707,107.563c0,0-6.776-1.99-11.407,5.643C221.96,112.949,226.849,110.496,227.707,107.563z"/>
		<path style="fill:#AF4646;" d="M229.212,109.658c0,0-5.812,0.606-6.958,7.904C226.507,115.587,229.478,112.173,229.212,109.658z"
			/>
		<path style="fill:#D59880;" d="M272.906,403.187l-6.175,32.077h48.887c0,0,3.431-13.551-19.383-17.497
			c2.745-13.723,2.745-13.723,2.745-13.723L272.906,403.187z"/>
		<path style="fill:#AF4646;" d="M317.566,441.096h-51.582c-1.198,0-2.169-0.971-2.169-2.169v-1.494
			c0-1.198,0.971-2.169,2.169-2.169h51.582c1.198,0,2.169,0.971,2.169,2.169v1.494C319.735,440.125,318.764,441.096,317.566,441.096
			z"/>
		<path style="fill:#D66562;" d="M296.235,417.767c-5.416,6.499-7.274,13.337-7.908,17.496h11.011
			c0.858-8.902,4.54-12.928,6.788-14.582C303.553,419.492,300.321,418.474,296.235,417.767z"/>
		<path style="fill:none;stroke:#723C2E;stroke-width:0.422;stroke-miterlimit:10;" d="M281.654,416.566c0,0-0.708,3.77-6.347,3.602
			"/>
		<path style="fill:none;stroke:#723C2E;stroke-width:0.422;stroke-miterlimit:10;" d="M309.1,435.264c0,0,1.583-4.631-3.497-6.175"
			/>
		<path style="fill:#D59880;" d="M332.081,403.187l-1.058,32.077h48.888c0,0,3.431-13.551-19.383-17.497
			c-2.372-13.723-2.372-13.723-2.372-13.723L332.081,403.187z"/>
		<path style="fill:#AF4646;" d="M381.858,441.096h-51.582c-1.198,0-2.169-0.971-2.169-2.169v-1.494
			c0-1.198,0.971-2.169,2.169-2.169h51.582c1.198,0,2.169,0.971,2.169,2.169v1.494C384.027,440.125,383.056,441.096,381.858,441.096
			z"/>
		<path style="fill:#D66562;" d="M360.527,417.767c-5.416,6.499-7.274,13.337-7.908,17.496h11.011
			c0.858-8.902,4.54-12.928,6.788-14.582C367.845,419.492,364.613,418.474,360.527,417.767z"/>
		<path style="fill:none;stroke:#723C2E;stroke-width:0.422;stroke-miterlimit:10;" d="M345.947,416.566c0,0-0.708,3.77-6.347,3.602
			"/>
		<path style="fill:none;stroke:#723C2E;stroke-width:0.422;stroke-miterlimit:10;" d="M373.392,435.264
			c0,0,1.583-4.631-3.497-6.175"/>
		<polygon style="fill:#D66562;" points="358.494,267.845 262.804,267.845 262.804,387.577 360.046,387.577 		"/>
		<path style="fill:#AF4646;" d="M358.828,267.845L358.828,267.845c-8.867,0-16.055,7.188-16.055,16.055v103.677h32.109V283.9
			C374.882,275.033,367.695,267.845,358.828,267.845z"/>
		<polygon style="fill:#AF4646;" points="171.903,146.741 239.8,146.741 239.8,279.975 181.878,279.975 		"/>
		<path style="fill:#FFF6E7;" d="M289.831,259.04c0,0,64.04,11.207,76.848,24.015c10.521,10.063-5.058,127.165-5.058,127.165
			s-15.526,7.319-34.281-2.287c-2.516-102.921-2.516-102.921-2.516-102.921l-29.733-20.355l-40.94-16.467l19.125-13.723
			L289.831,259.04z"/>
		<path style="fill:#EDE2D1;" d="M366.679,283.055c-2.615-2.615-7.368-5.164-13.275-7.564c-5.646,2.934-9.509,8.824-9.509,15.626
			c0,9.726,7.885,17.611,17.611,17.611c3.215,0,6.22-0.876,8.815-2.381C370.26,294.374,369.25,285.514,366.679,283.055z"/>
		<path style="fill:#FFF6E7;" d="M217.786,268.188c0,0-2.287,24.472,7.09,31.563c9.377,7.09,51.689,9.606,51.689,9.606
			l-11.664,95.602c0,0,15.324,7.548,37.509,5.489c19.898-76.619,28.818-113.899,21.511-123.963
			c-3.254-4.481-41.066-21.151-53.588-21.668C256.668,264.3,217.786,268.188,217.786,268.188z"/>
		<path style="fill:#D59880;" d="M279.79,189.725c0,0,1.438,43.135,3.496,49.997c2.058,6.861,26.76,12.808,60.152,18.297
			c3.431,8.691,6.318,11.664,6.318,11.664s-2.201,10.75,1.458,12.351c2.745,1.144,3.888-12.122,3.888-12.122
			s0.229,13.494,3.202,13.723c2.516,0.229,3.202-3.659,3.202-3.659s4.119,0.229,4.232-3.431c2.629-3.431,2.858-12.122,1.486-15.781
			c-1.372-3.659-4.803-13.037-16.01-16.467c-11.207-3.431-41.626-18.754-41.626-18.754l-4.574-35.573
			C305.014,189.968,294.428,187.209,279.79,189.725z"/>
		<path style="opacity:0.34;fill:#874938;" d="M306.598,202.282l-1.583-12.313c0,0-10.586-2.76-25.224-0.244
			c0,0,0.838,25.131,2.15,40.08c1.222-0.921,2.082-2.857,2.351-6.228C285.41,209.53,300.147,204.027,306.598,202.282z"/>
		<path style="opacity:0.34;fill:#A05A42;" d="M295.741,240.636c0-7.42-5.329-13.535-12.233-14.492
			c-0.614,6.308-0.837,11.527-0.222,13.577c0.767,2.557,4.684,4.988,11.019,7.314C295.216,245.1,295.741,242.934,295.741,240.636z"
			/>
		<path style="fill:none;stroke:#723C2E;stroke-width:0.422;stroke-miterlimit:10;" d="M309.589,225.541
			c0,0-6.633-1.601-9.149-1.601"/>
		<path style="fill:none;stroke:#723C2E;stroke-width:0.422;stroke-miterlimit:10;" d="M361.507,279.975c0,0,0.515-5.775,0-9.206"/>
		<path style="fill:none;stroke:#723C2E;stroke-width:0.422;stroke-miterlimit:10;" d="M365.739,276.544c0,0,0.228-6.29-0.63-9.549"
			/>
		<path style="fill:#EDE2D1;" d="M279.79,206.243c0,0,15.758-9.07,31.883-7.012c-9.263-34.993-19.442-48.699-30.076-52.49
			C274.622,183.107,279.79,206.243,279.79,206.243z"/>
		<path style="fill:#D3D1C5;" d="M309.067,190.018c-11.992,0.126-25.318,4.389-30.605,6.262c0.545,6.437,1.329,9.963,1.329,9.963
			s15.758-9.07,31.883-7.012C310.812,195.979,309.943,192.911,309.067,190.018z"/>
		<path style="fill:#FFF6E7;" d="M257.214,138.05l24.383,8.691c0,0,4.346,37.052,2.745,57.178
			c-1.601,20.127,2.745,50.317,5.489,55.12c-27.674,8.691-53.976,12.579-72.045,9.148c4.117-36.594,0.229-100.405-6.404-119.846
			c31.334-10.75,33.392-10.292,33.392-10.292H257.214z"/>
		<path style="fill:#D59880;" d="M342.526,257.868c0,0-1.52,14.094,1.396,14.609c2.916,0.515,3.774-11.321,3.774-11.321
			S349.02,255.095,342.526,257.868z"/>
		<path style="fill:#EDE2D1;" d="M243.173,192.864c0,0,22.46,50.624,36.617,56.799C293.948,255.838,246.833,206.051,243.173,192.864
			z"/>
		<path style="fill:#EDE2D1;" d="M256.668,185.623l14.296-42.672l-13.749-4.901h-12.439c0,0-1.255-0.277-16.665,4.698
			L256.668,185.623z"/>
		<path style="opacity:0.26;fill:#8C8979;" d="M225.742,205.283l-7.067-2.343c1.223,22.655,1.137,47.245-0.889,65.249
			c11.225,2.131,25.631,1.434,41.567-1.481C226.255,250.475,225.742,205.283,225.742,205.283z"/>
		<path style="fill:#CC5E5E;" d="M232.681,103.257c0,0-3.945,0.515-5.06,3.431c-1.115,2.916,0.858,5.06,3.345,4.717
			c2.487-0.343,3.86-4.46,3.86-4.46L232.681,103.257z"/>
		<path style="fill:#CC5E5E;" d="M271.362,90.478c0,0,0.871-1.372,0.564-2.401c-0.307-1.029-2.108-4.203-3.48-4.889
			c-5.489-5.832-12.694-7.376-18.955-6.947c-6.261,0.429-15.781,5.232-17.754,13.894c-1.973,8.662,1.801,17.428,1.801,17.428
			l7.805,10.446l2.659-16.038C244.002,101.971,263.386,91.25,271.362,90.478z"/>
		<polygon style="fill:#D59880;" points="240.4,111.062 239.8,143.139 259.183,143.139 256.953,125.471 245.975,107.563 		"/>
		<path style="fill:#38110E;" d="M257.347,128.593l-9.657-1.407c0,0,2.234,7.728,10.73,9.912L257.347,128.593z"/>
		<path style="fill:#D59880;" d="M271.362,90.478c0,0,3.431,9.091,3.259,16.811c-0.172,7.719-1.372,22.986-3.774,26.073
			c-2.401,3.088-22.814-2.916-25.559-8.92c-2.745-6.004-5.489-21.785-5.489-21.785S252.322,90.478,271.362,90.478z"/>
		<path style="fill:#56221C;" d="M269.304,108.232c0,0,0.772,5.232,0.257,8.32c-3.602,0.343-3.602,0.343-3.602,0.343
			s2.487,0.772,4.975,0.429C270.848,112.949,269.304,108.232,269.304,108.232z"/>
		<path style="fill:#FFF6E7;" d="M263.386,108.232c0,0-2.316-3.774-7.719-1.973c-3.516,1.115-3.516,4.031-3.516,4.031
			S258.669,111.662,263.386,108.232z"/>
		<path style="fill:#56221C;" d="M271.927,107.134c0.902,0.268,1.805,0.392,2.688,0.429c0.002-0.091,0.005-0.186,0.007-0.275
			c0.026-1.15-0.036-2.329-0.147-3.505C272.363,105.096,271.927,107.134,271.927,107.134z"/>
		<path style="fill:#56221C;" d="M263.386,108.232c0,0-2.316-3.774-7.719-1.973c-0.125,0.04-0.236,0.086-0.352,0.13
			c-0.213,0.515-0.334,1.079-0.334,1.671c0,0.927,0.293,1.784,0.785,2.491C258.019,110.494,260.941,110.009,263.386,108.232z"/>
		<g>
			<path style="fill:#A05A42;" d="M263.815,110.376c-0.352,0.416-0.787,0.747-1.238,1.046c-0.45,0.303-0.937,0.546-1.435,0.757
				c-1.004,0.401-2.076,0.657-3.159,0.643l1.498-0.553c0.493-0.184,0.98-0.372,1.463-0.57
				C261.913,111.303,262.855,110.866,263.815,110.376z"/>
		</g>
		<g>
			<path style="fill:#38110E;" d="M252.15,110.29c-0.208-1.206,0.387-2.506,1.336-3.358c0.967-0.852,2.199-1.305,3.407-1.524
				c1.245-0.254,2.6-0.052,3.716,0.49c1.129,0.529,2.098,1.338,2.776,2.333c-0.98-0.685-2.007-1.237-3.074-1.579
				c-0.535-0.161-1.072-0.298-1.616-0.319c-0.544-0.052-1.073-0.019-1.618,0.096c-1.112,0.182-2.174,0.537-3.087,1.133
				C253.113,108.184,252.389,109.109,252.15,110.29z"/>
		</g>
		<path style="fill:#56221C;" d="M261.585,99.826c0,0-6.518-1.63-11.15,3.431c1.372-2.745,4.288-5.403,10.464-5.146
			C261.585,99.826,261.585,99.826,261.585,99.826z"/>
		<path style="fill:#56221C;" d="M273.37,97.26c-0.085-0.36-0.172-0.706-0.259-1.047c-2.095,0.564-2.521,1.212-2.521,1.212
			l0.343,1.544C271.861,98.119,272.708,97.593,273.37,97.26z"/>
		<path style="fill:none;stroke:#56221C;stroke-width:0.5194;stroke-linecap:round;stroke-miterlimit:10;" d="M269.647,121.697
			c0,0-4.117,0-6.947-0.257"/>
		<path style="fill:#D59880;" d="M245.246,108.596c0,3.801-3.082,6.883-6.883,6.883c-3.801,0-6.883-3.082-6.883-6.883
			s3.082-6.883,6.883-6.883C242.165,101.713,245.246,104.795,245.246,108.596z"/>
		<path style="fill:#B57A68;" d="M236.667,105.938c-2.064,0-3.91,0.913-5.172,2.351c-0.005,0.102-0.015,0.203-0.015,0.307
			c0,3.801,3.082,6.883,6.883,6.883c2.064,0,3.91-0.913,5.172-2.351c0.005-0.102,0.015-0.203,0.015-0.307
			C243.55,109.02,240.469,105.938,236.667,105.938z"/>
		<g style="opacity:0.36;">
			<path style="fill:#472625;" d="M239.028,100.255c2.208-2.482,4.719-4.656,7.378-6.632c1.34-0.974,2.713-1.911,4.17-2.718
				c1.445-0.816,2.968-1.538,4.576-1.971c-1.451,0.806-2.793,1.74-4.146,2.658c-1.344,0.931-2.67,1.89-3.985,2.867
				C244.371,96.388,241.772,98.389,239.028,100.255z"/>
		</g>
		<path style="opacity:0.36;fill:#472625;" d="M248.291,88.934c7.719-4.374,20.155-5.746,20.155-5.746
			c-1.427-1.516-2.972-2.737-4.584-3.714C251.483,82.449,241.462,92.804,248.291,88.934z"/>
		<path style="opacity:0.36;fill:#472625;" d="M241.601,81.301c-3.307,1.602-7.195,5.593-9.772,8.519
			c-0.027,0.107-0.066,0.207-0.091,0.315c-0.622,2.729-0.671,5.468-0.45,7.94C235.447,88.977,246.294,79.028,241.601,81.301z"/>
		<path style="fill:#D59880;" d="M256.01,172.586l9.772-31.482l-8.568-3.054h-12.439c0,0-0.963-0.207-11.421,3.036L256.01,172.586z"
			/>
		<path style="fill:#EDE2D1;" d="M311.944,279.274c-6.878,2.397-11.821,8.922-11.821,16.617c0,9.726,7.885,17.611,17.611,17.611
			c2.72,0,5.286-0.635,7.586-1.736c1.83-13.125,1.477-21.321-1.398-25.281C322.869,285.037,318.197,282.313,311.944,279.274z"/>
		<path style="fill:#EDE2D1;" d="M361.621,410.22c0,0,0.638-4.799,1.569-12.534c-15.612,2.115-30.012-0.416-36.144-1.789
			c0.094,3.852,0.192,7.85,0.294,12.036C346.095,417.539,361.621,410.22,361.621,410.22z"/>
		<path style="fill:#EDE2D1;" d="M266.418,392.527l-1.517,12.432c0,0,15.324,7.548,37.509,5.489c1.1-4.236,2.161-8.331,3.193-12.329
			C286.954,399.199,272.743,394.923,266.418,392.527z"/>
		<path style="fill:#B57A68;" d="M249.776,147.199c0,0,2.546,5.718,4.376,5.489c1.83-0.229,1.001-5.947,1.001-5.947
			S252.947,146.97,249.776,147.199z"/>
		<path style="fill:#D66562;" d="M254.152,268.188h-57.178c0,0-4.574-107.489-17.382-118.47
			c-12.808-10.982-28.818,9.109-27.903,46.636c0.915,37.527,6.862,191.223,6.862,191.223h95.602V268.188z"/>
		<path style="fill:#AF4646;" d="M254.279,267.845L254.279,267.845c-8.867,0-16.055,7.188-16.055,16.055v103.677h32.109V283.9
			C270.333,275.033,263.145,267.845,254.279,267.845z"/>
		<path style="fill:#38110E;" d="M271.927,107.134c0,0,0.6-2.309,2.548-3.35c-0.096-0.957-0.096-0.957-0.096-0.957
			S271.633,104.577,271.927,107.134z"/>
		<g>
			<path style="fill:#A05A42;" d="M271.62,108.832c0.417-0.126,0.789-0.102,1.159-0.041c0.182,0.041,0.365,0.083,0.542,0.165
				c0.178,0.077,0.356,0.162,0.529,0.305c-0.198,0.071-0.392,0.085-0.585,0.091c-0.194,0.011-0.384-0.019-0.573-0.049
				C272.317,109.22,271.946,109.101,271.62,108.832z"/>
		</g>
		<path style="opacity:0.56;fill:#56221C;" d="M255.34,287.172c2.7,7.776,8.189,5.947,8.189,2.973c0-2.073-1-13.581-1.606-20.366
			c-2.273-1.233-4.877-1.934-7.645-1.934h0c-1.132,0-2.235,0.12-3.301,0.343h-5.517c0,0,2.973,6.42,5.146,8.356
			C249.806,290.145,253.554,292.432,255.34,287.172z"/>
		<path style="opacity:0.24;fill:#EFEEE4;" d="M270.848,133.362c2.402-3.088,3.602-18.354,3.774-26.073
			c0.172-7.719-3.259-16.811-3.259-16.811c-12.423,0-22.068,5.184-27.274,8.787c0.002,0.02,1.334,13.006,8.469,18.146
			c4.773,3.438,7.388,11.072,8.599,15.759C265.784,134.358,269.855,134.638,270.848,133.362z"/>
		<path style="fill:none;stroke:#CEC9B2;stroke-width:1.0387;stroke-miterlimit:10;" d="M272.907,264.189
			c0,0,41.649,11.776,51.014,22.297c6.278,8.119,0.857,28.949,0.857,28.949"/>
		<path style="fill:none;stroke:#CEC9B2;stroke-width:1.0387;stroke-miterlimit:10;" d="M289.831,259.04
			c0,0-13.494,4.465-19.498,5.777"/>
		<polygon style="fill:#723C2E;" points="180.62,409.19 183.012,441.096 191.009,441.096 193.657,409.19 		"/>
		<polygon style="fill:#56221C;" points="180.62,409.19 193.657,409.19 193.097,415.938 181.126,415.938 		"/>
		<polygon style="fill:#723C2E;" points="235.508,409.19 237.9,441.096 245.897,441.096 248.545,409.19 		"/>
		<polygon style="fill:#56221C;" points="235.508,409.19 248.545,409.19 247.985,415.938 236.014,415.938 		"/>
		<path style="opacity:0.56;fill:#56221C;" d="M196.668,261.928c-0.707-13.515-2.689-46.401-6.402-73.258
			c-0.02,0.082-4.962,20.786-7.245,36.871C180.735,241.658,180.353,250.408,196.668,261.928z"/>
		<g>
			<path style="fill:#7C7061;" d="M189.426,203.738c0,0,2.745,7.958,35.451,6.586C223.047,203.691,193.543,199.44,189.426,203.738z"
				/>
			<path style="fill:#D59880;" d="M193.771,197.058c0,0-7.319,42.312-5.26,49.174c2.058,6.861,26.76,12.808,60.152,18.297
				c3.431,8.691,6.318,11.664,6.318,11.664s-2.201,10.75,1.458,12.351c2.745,1.144,3.888-12.122,3.888-12.122
				s0.229,13.494,3.202,13.723c2.516,0.229,3.202-3.659,3.202-3.659s4.119,0.229,4.232-3.431c2.629-3.431,2.858-12.122,1.486-15.781
				c-1.372-3.659-4.803-13.037-16.01-16.467c-11.207-3.431-41.626-18.755-41.626-18.755l5.718-32.477
				C220.531,199.574,208.409,194.543,193.771,197.058z"/>
			<path style="opacity:0.34;fill:#A05A42;" d="M200.966,247.147c0-7.42-5.329-13.535-12.233-14.492
				c-0.614,6.308-0.837,11.527-0.222,13.577c0.767,2.557,4.683,4.988,11.019,7.314C200.441,251.611,200.966,249.445,200.966,247.147
				z"/>
			<path style="fill:none;stroke:#723C2E;stroke-width:0.422;stroke-miterlimit:10;" d="M214.813,232.052
				c0,0-6.633-1.601-9.148-1.601"/>
			<path style="fill:none;stroke:#723C2E;stroke-width:0.422;stroke-miterlimit:10;" d="M266.731,286.486c0,0,0.515-5.775,0-9.206"
				/>
			<path style="fill:none;stroke:#723C2E;stroke-width:0.422;stroke-miterlimit:10;" d="M270.963,283.055c0,0,0.228-6.29-0.63-9.549
				"/>
			<path style="opacity:0.34;fill:#874938;" d="M220.531,199.574c0,0-12.122-5.032-26.759-2.516c0,0-0.761,4.403-1.724,10.595
				c4.823,0.288,17.599,1.716,25.507,8.827L220.531,199.574z"/>
			<path style="fill:#FFF6E7;" d="M211.382,148.342c0,0-10.063,5.26-14.409,21.499c-4.346,16.239-7.548,33.897-7.548,33.897
				s23.329-2.563,35.451,6.586c4.574-30.419,4.574-30.419,4.574-30.419S233.11,152.23,211.382,148.342z"/>
			<path style="fill:#EDE2D1;" d="M226.407,200.142c-10.599-6.29-26.899-7.228-34.834-7.278c-1.346,6.453-2.147,10.875-2.147,10.875
				s23.329-2.563,35.451,6.586C225.458,206.458,225.964,203.088,226.407,200.142z"/>
			<g>
				<path style="fill:#D3D1C5;" d="M226.407,200.142c0.412-2.447,0.815-4.892,1.131-7.35c0.35-2.451,0.658-4.908,0.882-7.37
					c0.456-4.916,0.813-9.869,0.387-14.759c-0.053-1.229-0.257-2.43-0.428-3.638c-0.266-1.186-0.514-2.358-0.92-3.536
					c-0.742-2.354-1.588-4.672-2.554-6.928c-0.99-2.237-2.147-4.438-3.816-6.219c-0.822-0.892-1.75-1.71-2.83-2.294
					c-1.071-0.594-2.238-1.018-3.446-1.306c2.46,0.316,4.855,1.445,6.641,3.245c1.81,1.78,3.077,4,4.176,6.24
					c1.103,2.251,1.932,4.612,2.727,6.97c0.418,1.162,0.709,2.418,0.996,3.645c0.193,1.244,0.422,2.487,0.487,3.74
					c0.347,5.008-0.002,9.999-0.631,14.931C228.569,190.444,227.653,195.336,226.407,200.142z"/>
			</g>
		</g>
		
			<line style="fill:none;stroke:#CEC9B2;stroke-width:1.0387;stroke-miterlimit:10;" x1="276.566" y1="309.357" x2="278.462" y2="298.379"/>
		<path style="fill:none;stroke:#AF4646;stroke-width:1.0387;stroke-miterlimit:10;" d="M319.343,126.843
			c0,0-3.667,43.456,17.603,64.497c21.27,21.042,34.078,93.601,0,86.94c-34.078-6.661-11.263-37.503-31.932-45.626"/>
		<polygon style="fill:#723C2E;" points="305.755,231.566 304.469,233.71 301.124,231.909 302.753,229.507 		"/>
		<path style="fill:#F4E9D3;" d="M305.014,229.507c0,0-3.29,0.171-4.234,4.374c-3.088-1.029-3.088-1.029-3.088-1.029
			s1.458-4.374,5.403-4.803C305.014,229.507,305.014,229.507,305.014,229.507z"/>
		<path style="fill:#FFF6E7;" d="M266.662,390.526c0,0,3.164-25.934,4.88-40c1.716-14.066,11.484,24.7,11.484,24.7l-7.033,17.3
			L266.662,390.526z"/>
	</g>
	<g>
		<g>
			<g>
				<path style="fill:#EADFCE;" d="M131.854,155.881c0,0,37.959,46.2,13.637,100.882
					C103.276,220.222,131.215,173.919,131.854,155.881z"/>
				<path style="fill:none;stroke:#AA9D87;stroke-width:0.5194;stroke-miterlimit:10;" d="M131.854,155.881
					c0,0,18.176,65.14,13.637,100.882"/>
				<path style="fill:none;stroke:#AA9D87;stroke-width:0.5194;stroke-miterlimit:10;" d="M141.576,197.441
					c0,0-9.174-7.822-17.266-9.218"/>
				<path style="fill:none;stroke:#AA9D87;stroke-width:0.5194;stroke-miterlimit:10;" d="M145.571,229.264
					c0,0-7.908-11.141-22.804-12.863"/>
				<path style="fill:none;stroke:#427824;stroke-width:1.0387;stroke-miterlimit:10;" d="M143.442,210.963
					c0,0,2.709-6.397,8.633-9.007"/>
				<path style="fill:none;stroke:#AA9D87;stroke-width:0.5194;stroke-miterlimit:10;" d="M138.34,182.862
					c0,0,2.006-6.836,4.733-8.463"/>
			</g>
			<g>
				<path style="fill:#FFF6E7;" d="M175.636,158.623c0,0,15.567,57.732-29.116,97.547
					C123.098,205.488,167.626,174.798,175.636,158.623z"/>
				<path style="fill:none;stroke:#D6C8AE;stroke-width:0.5194;stroke-miterlimit:10;" d="M175.636,158.623
					c0,0-10.26,66.846-29.116,97.547"/>
				<path style="fill:none;stroke:#D6C8AE;stroke-width:0.5194;stroke-miterlimit:10;" d="M167.381,200.499
					c0,0-5.139-10.906-11.938-15.51"/>
				<path style="fill:none;stroke:#D6C8AE;stroke-width:0.5194;stroke-miterlimit:10;" d="M157.918,231.145
					c0,0-2.619-13.409-15.484-21.112"/>
				<path style="fill:none;stroke:#D6C8AE;stroke-width:0.5194;stroke-miterlimit:10;" d="M163.514,213.59
					c0,0,5.103-4.714,11.576-4.652"/>
				<path style="fill:none;stroke:#D6C8AE;stroke-width:0.5194;stroke-miterlimit:10;" d="M170.436,185.881
					c0,0,4.643-5.404,7.798-5.763"/>
			</g>
		</g>
		<g>
			<path style="fill:#D66562;" d="M102.101,179.832c0,0-10.323-14.567-17.149-8.865C78.126,176.669,89.69,184.546,102.101,179.832z"
				/>
			<path style="fill:#D66562;" d="M114.022,216.358c0,0-0.435-17.848-9.281-16.927C95.895,200.352,101.093,213.342,114.022,216.358z
				"/>
			<path style="fill:#D66562;" d="M116.248,176.747c0,0-0.434-17.849-9.281-16.928C98.121,160.74,103.319,173.73,116.248,176.747z"
				/>
			<path style="fill:#D66562;" d="M130.465,229.551c0,0,15.548-8.775,10.576-16.15C136.069,206.027,127.048,216.722,130.465,229.551
				z"/>
			<path style="fill:none;stroke:#723C2E;stroke-width:1.0387;stroke-linecap:round;stroke-miterlimit:10;" d="M133.218,261.63
				c0,0-17.248-11.009-10.433-39.951c6.815-28.942-20.083-41.525-26.004-43.89"/>
			<path style="fill:none;stroke:#723C2E;stroke-width:1.0387;stroke-linecap:round;stroke-miterlimit:10;" d="M117.591,192.921
				c0,0,1.048-12.782-5.224-21.256"/>
			<path style="fill:none;stroke:#723C2E;stroke-width:1.0387;stroke-linecap:round;stroke-miterlimit:10;" d="M122.784,221.679
				c0,0-10.195-2.803-13.992-12.353"/>
			<path style="fill:none;stroke:#723C2E;stroke-width:1.0387;stroke-linecap:round;stroke-miterlimit:10;" d="M121.561,240.292
				c0,0,9.536-5.918,12.305-20.066"/>
		</g>
		<g>
			<path style="fill:#FFF6E7;" d="M145.046,248.759h26.953c0,0-4.155,48.755-14.664,68.539c-7.669,0-12.289,0-12.289,0
				s-4.62,0-12.289,0c-10.509-19.784-14.664-68.539-14.664-68.539H145.046z"/>
			<path style="fill:#AF4646;" d="M171.999,248.759c0,0-0.342,4.01-1.077,10.191h-51.753c-0.735-6.181-1.077-10.191-1.077-10.191
				h26.953H171.999z"/>
			<path style="opacity:0.26;fill:#472625;" d="M171.999,248.759c0,0-4.155,48.755-14.664,68.539c-7.669,0-12.289,0-12.289,0
				s-0.074,0-0.217,0c10.509-19.784,14.664-68.539,14.664-68.539H171.999z"/>
		</g>
	</g>
	<g>
		<rect x="89.811" y="317.133" style="fill:#723C2E;" width="111.155" height="5.66"/>
		<rect x="141.043" y="322.793" style="fill:#723C2E;" width="6.861" height="112.471"/>
		<rect x="141.043" y="322.793" style="fill:#38110E;" width="6.861" height="8.521"/>
		<path style="fill:#38110E;" d="M168.703,442.786h-48.545l0,0c0-4.226,3.426-7.651,7.651-7.651h33.242
			C165.277,435.135,168.703,438.561,168.703,442.786L168.703,442.786z"/>
	</g>
</g>
</svg>
