<?xml version="1.0" encoding="utf-8"?>
<!-- Generator: Adobe Illustrator 27.5.0, SVG Export Plug-In . SVG Version: 6.00 Build 0)  -->
<svg version="1.1" id="Layer_1" xmlns="http://www.w3.org/2000/svg" xmlns:xlink="http://www.w3.org/1999/xlink" x="0px" y="0px"
	 viewBox="0 0 400 350" style="enable-background:new 0 0 400 350;" xml:space="preserve">
<g>
	<path style="opacity:0.5;fill:#CEB9A7;" d="M96.711,286.092c0,2.147,3.086,3.888,6.893,3.888c3.806,0,6.892-1.741,6.892-3.888
		c0-2.147-3.086-3.888-6.892-3.888C99.797,282.204,96.711,283.945,96.711,286.092z"/>
	<path style="opacity:0.5;fill:#CEB9A7;" d="M186.509,293.871c0,6.75,9.7,12.222,21.668,12.222c11.965,0,21.666-5.472,21.666-12.222
		c0-6.751-9.701-12.223-21.666-12.223C196.209,281.648,186.509,287.12,186.509,293.871z"/>
	<path style="opacity:0.5;fill:#CEB9A7;" d="M239.417,201.905c-7.664-4.48-14.523-7.604-22.382-7.552
		c-7.859,0.052-39.229,15.376-50.544,18.048c-6.044,1.427-14.762,11.669-24.648,18.766c-8.622,6.189-16,5.572-21.667,10.331
		c-3.661,3.075-6.079,10.236-7.247,17.125c-3.7-2.486-9.317-3.132-12.64-2.199c-5.113,1.435-41.44-0.334-50.613,0.086
		c-5.87,0.269-8.361,5.369-4,10.365c3.508,4.018,9.5,7.702,16.167,10.684c8.738,3.908,13.282,7.445,28.891,4.646
		c9.673-1.735,17.525-5.516,21.949-9.806c2.116,5.776,11.071,5.375,18.877,6.006c5.172,0.418,16.499-0.28,22.579,0.882
		c3.979,0.76,3.563,1.653,6.351,3.626c4.734,3.352,9.935,0.354,14.191-3.626c1.8-1.683,4.836-4.74,10.326-3.947
		c6.035,0.872,11.662,1.337,14.599,0c3.897-1.775,5.045-5.899-3.415-7.435c-8.46-1.535-9.572-0.926,1.372-13.213
		c10.945-12.287,11.152-21.565,14.188-26.068c0.949-1.408,5.283-3.531,11.83-6.221c5.244-2.155,11.488-4.177,15.094-6.965
		C246.342,209.509,243.737,204.43,239.417,201.905z"/>
	<g>
		<path style="fill:#C62C2C;" d="M179.03,196.685c1.602-4.105,2.959-10.42,6.153-13.543c3.402-3.326,6.832-2.373,11.234-3.821
			c5.829-1.919,11.775-3.461,17.798-4.633c2.838-0.552,7.001-2.867,9.509-0.835c5.065,4.104,10.017,15.393,10.666,22.563
			c0.443,4.893-1.383,10.742-7.029,9.25c-2.21,3.941-6.094,7.683-10.527,9.342c-4.195,1.57-12.931,4.725-17.556,2.224
			c-3.16,4.785-8.26,5.136-12.757,1.159C181.203,213.688,175.782,205.012,179.03,196.685z"/>
		<path style="fill:#DD3C3C;" d="M185.705,182.549c3.011-2.836,22.483-9.878,28.617-11.595c1.649-0.462,4.424-0.111,8.348,2.22
			c2.581,1.533,4.207,3.595,2.199,5.508c-1.849,1.762-12.42,6.881-14.974,8.121c-3.819,1.854-10.073,4.384-14.4,4.779
			c-1.958,0.178-5.734-1.103-8.287-2.975C184.831,186.866,183.514,184.613,185.705,182.549z"/>
		<path style="fill:#B72121;" d="M184.098,190.497c4.734,3.639,8.427,4.59,8.945,10.977c0.317,3.91,0.843,9.308-0.267,13.111
			c-0.398,1.362-0.724,2.194-2.133,2.644c-3.928,1.253-9.08-5.517-10.238-8.605C178.6,203.808,181.985,192.294,184.098,190.497z"/>
		<path style="fill:#C62C2C;" d="M221.086,174.526c0,0-9.207,4.407-13.42,6.298c-4.213,1.891-18.181,6.298-18.181,6.298
			s10.133-5.534,15.693-7.831C211.753,176.574,221.086,174.526,221.086,174.526z"/>
		<path style="fill:#5E291B;" d="M196.097,176.994c5.084-3.078,11.914-0.742,17.14,2.553c-0.773-2.494-1.701-4.996-2.818-7.597
			c-0.163-0.379,0.347-0.708,0.568-0.332c1.671,2.842,2.922,5.87,3.841,8.999c1.014,0.721,1.953,1.461,2.765,2.185
			c6.452,5.748,11.165,15.133,9.66,23.917c-0.048,0.282-0.523,0.406-0.563,0.053c-0.889-7.876-2.214-15.097-7.825-21.165
			c-1.132-1.225-2.333-2.329-3.595-3.307c1.279,5.078,1.719,10.384,1.502,15.617c-0.268,6.474-1.318,16.201-7.505,19.849
			c-0.28,0.165-0.606-0.233-0.354-0.46c5.766-5.179,6.99-14.152,6.885-21.59c-0.074-5.238-0.777-9.893-2.069-14.518
			c-5.091-3.401-11.766-5.633-17.455-3.728C195.999,177.563,195.845,177.147,196.097,176.994z"/>
		<path style="fill:#5E291B;" d="M193.618,178.933c-0.076-0.244,0.292-0.402,0.415-0.175c6.086,11.35,7.679,26.266,5.847,38.88
			c-0.075,0.519-0.96,0.4-0.92-0.125c0.502-6.588,0.629-13.058-0.311-19.618C197.707,191.323,195.589,185.238,193.618,178.933z"/>
		<path style="fill:#381509;" d="M197.937,211.918c0.975-4.635,3.955-11.528,4.337-18.997c0.975-0.268,1.912-0.658,2.725-1.136
			c0.021,0.072-0.783,8.093-1.628,12.421c-0.748,3.827-3.093,7.436-3.197,11.399c-0.413,15.715,18.917,4.137,25.277,1.013
			c3.492-1.715,7.909-3.221,10.791-5.942c4.696-4.434,1.627-9.816-2.177-13.716c-4.23-4.337-9.448-7.615-12.442-13.008
			c0.015-0.007,0.03-0.014,0.045-0.021c0.665-0.324,1.392-0.651,2.077-1.039c4.307,4.835,9.364,8.948,13.531,13.888
			c3.342,3.963,6.322,8.483,2.769,13.068c-4.266,5.505-12.003,7.684-17.992,10.79c-5.557,2.882-11.619,6.117-18.253,5.296
			C197.391,225.141,197.02,216.277,197.937,211.918z"/>
		<path style="fill:#E0CEC1;" d="M220.35,182.94l3.536-2.032c0.507-0.292,2.055,1.323,1.966,1.959
			c-0.111,0.792-1.241,1.487-1.847,1.897c-0.678,0.459-1.787,1.149-2.642,1.045C220.407,185.693,219.608,183.346,220.35,182.94z"/>
		<path style="fill:#E0CEC1;" d="M201.017,191.404l3.866-1.3c0.555-0.187,1.756,1.7,1.544,2.306
			c-0.265,0.755-1.508,1.215-2.183,1.498c-0.755,0.317-1.977,0.777-2.796,0.507C200.533,194.115,200.21,191.657,201.017,191.404z"/>
		<path style="fill:#B72121;" d="M221.022,208.554c0.369-0.491,0.89-0.815,1.237-1.333c0.341-0.508,0.465-1.118,0.816-1.618
			c0.142-0.203,0.441-0.174,0.521,0.068c0.415,1.242-0.851,3.219-2.095,3.506C221.178,209.252,220.784,208.871,221.022,208.554z"/>
		<path style="fill:#B72121;" d="M218.466,208.512c0.167-0.807,0.111-1.671-0.161-2.453c-0.111-0.319,0.336-0.451,0.508-0.214
			c0.994,1.369,1.361,4.265-0.444,5.226c-0.358,0.19-0.794-0.124-0.688-0.529C217.868,209.83,218.314,209.249,218.466,208.512z"/>
		<path style="fill:#B72121;" d="M205.941,213.232c0.822-1.026,2.282-1.42,3.461-1.908c0.377-0.156,0.544,0.41,0.259,0.615
			c-1.058,0.763-2.133,1.742-3.466,1.906C205.849,213.887,205.773,213.442,205.941,213.232z"/>
		<path style="fill:#B72121;" d="M206.072,208.656c0.281-0.107,0.566,0.272,0.397,0.516c-0.345,0.496-0.742,0.98-1.042,1.503
			c-0.307,0.534-0.462,1.175-0.829,1.665c-0.228,0.305-0.879,0.372-0.949-0.124C203.437,210.721,204.736,209.164,206.072,208.656z"
			/>
		<path style="fill:#B72121;" d="M193.962,215.888c0.361-0.721,0.847-1.345,1.105-2.123c0.254-0.768,0.305-1.583,0.257-2.385
			c-0.015-0.247,0.368-0.358,0.477-0.129c0.769,1.622,0.448,4.273-1.349,5.128C194.127,216.533,193.796,216.219,193.962,215.888z"/>
	</g>
	<g>
		<path style="fill:#77382C;" d="M43.282,247.991c2.335-3.499,6.456-5.61,7.744-9.821c1.356-4.434,0.329-9.602,1.173-14.202
			c0.831-4.533,2.719-12.346,7.84-13.719c0.167,1.45,0.558,2.865,1.109,4.074c-8.998,5.581-2.827,20.128-6.836,28.651
			c-1.917,4.075-6.497,5.479-8.339,9.368c-2.112,4.46,1.577,8.059,5.735,9.226c1.937,0.544,3.893,0.442,5.851,0.297
			c-0.135,0.83-0.158,1.702-0.089,2.556C48.196,269.012,36.639,257.945,43.282,247.991z"/>
		<path style="fill:#4A725B;" d="M56.835,243.055c0.376-2.275,2.733-6.207,4.326-8.127c-0.369-1.107-4.326-7.166,1.904-13.004
			c-1.245-2.562-7.099-12.396,1.568-18.804c5.17-3.822,8.677-2.823,10.539-2.558c5.335,0.757,11.541,1.112,16.452,3.486
			c3.273,1.582,6.325,4.582,6.63,8.4c0.005,0.065-0.001,0.132,0.002,0.198c6.565,1.198,9.098,8.409,6.135,14.189
			c8.185,5.277,9.516,16.109,2.92,23.085c6.23,2.255,8.113,11.755,4.649,17.168c-4.96,7.753-15.302,10.713-23.959,11.86
			c-8.261,1.095-19.091-0.414-27.153-5.107c-6.482-3.774-5.633-12.584-2.497-15.96C55.486,252.6,55.871,248.896,56.835,243.055z"/>
		<path style="fill:#3B634B;" d="M60.305,256.639c-2.271-2.379-2.446-6.19-2.245-9.503c0.134-2.203,0.309-4.534,1.211-6.582
			c1.062-2.411,2.885-3.246,4.68-4.716c-0.1-0.284-0.192-0.572-0.268-0.864c-1.94-1.457-2.157-4.784-1.827-6.974
			c0.209-1.383,0.666-2.77,1.382-3.981c1.288-2.179,2.003-1.869,0.698-4.414c-1.372-2.677-3.146-6.099-1.645-9.144
			c1.07-2.169,2.985-2.765,5.017-1.622c0.052,0.03,0.08,0.08,0.106,0.13c2.454,0.34,4.678,4.036,5.419,5.986
			c1.379,3.63,0.642,7.451-1.634,10.492c2.385,3.831,2.55,10.199-1.107,13.212c2.337,5.817,3.599,17.643-1.714,20.001
			c1.757,3.049,3.009,6.966,1.745,10.137c-1.269,3.184-5.208,3.334-8.031,2.368C55.973,269.074,56.411,260.892,60.305,256.639z"/>
		<path style="fill:#5E8570;" d="M64.634,203.119c1.652-3.491,17.304-9.095,21.437-9.986c3.212-0.692,5.608-0.499,8.184,1.712
			c4.731,4.063,11.031,12.542,8.86,19.201c-2.273,6.971-12.597,10.901-19.097,11.873c-3.757,0.562-7.153,0.812-9.964-1.971
			C71.642,221.56,62.654,207.303,64.634,203.119z"/>
		<path style="fill:#E0CEC1;" d="M96.117,219.569c0.512-0.055,1.566,3.105,1.193,4.809c-0.393,1.796-1.342,3.301-3.249,2.761
			c-2.218-0.628-3.134-2.63-3.327-4.684C93.308,221.285,96.101,219.548,96.117,219.569z"/>
		<path style="fill:#5E8570;" d="M84.044,242.31c-1.076-5.102,2.929-7.322,7.125-9.01c4.401-1.771,9.648-2.162,13.393,1.108
			c5.138,4.486,0.922,11.373-4.547,12.927C95.307,248.673,85.345,248.479,84.044,242.31z"/>
		<path style="fill:#5E8570;" d="M89.948,265.437c-1.127-4.024,1.96-6.009,5.227-7.578c3.427-1.646,7.603-2.233,10.768,0.186
			c4.344,3.319,1.332,9.046-2.96,10.575C99.288,269.936,91.311,270.302,89.948,265.437z"/>
		<path style="fill:#5E291B;" d="M61.021,233.098c7.867,2.715,16.005,5.378,24.39,3.688c-8.349-3.294-16.714-8.115-22.588-14.977
			c-0.199-0.233,0.072-0.675,0.355-0.46c6.37,4.861,12.56,9.631,19.927,12.925c1.353,0.605,2.895,1.269,4.552,1.926
			c6.508-1.947,10.981-6.106,16.64-9.863c0.17-0.113,0.39,0.111,0.28,0.28c-3.162,4.888-9.156,8.428-14.926,10.346
			c7.15,2.634,15.882,4.714,21.676,1.659c0.799-0.421,1.509,0.789,0.709,1.213c-6.937,3.676-17.273,0.487-24.524-2.233
			c-0.464,0.123-0.934,0.263-1.388,0.363c-8.747,1.928-17.229-0.748-25.461-3.571C59.848,234.117,60.2,232.815,61.021,233.098z"/>
		<path style="fill:#5E291B;" d="M58.535,257.439c3.687,0.626,7.287,1.102,10.875,1.351c-5.703-5.509-10.803-12.836-11.219-20.355
			c-0.011-0.189,0.286-0.279,0.368-0.1c1.849,4.042,3.096,8.217,5.55,11.994c2.066,3.18,4.581,6.027,7.372,8.58
			c4.599,0.196,9.2-0.027,13.959-0.901c8.247-1.515,15.066-5.34,22.735-8.357c0.254-0.1,0.457,0.279,0.263,0.452
			c-6.22,5.569-16.061,8.272-24.109,9.594c-3.531,0.58-7.227,0.884-10.935,0.882c0.797,0.657,1.592,1.316,2.428,1.922
			c8.201,5.951,19.411,11.209,29.706,10.829c0.658-0.024,0.819,1.03,0.157,1.164c-5.343,1.082-10.931-1.102-15.864-3.005
			c-5.431-2.095-10.633-4.818-15.294-8.318c-1.054-0.792-2.129-1.671-3.199-2.611c-4.475-0.152-8.927-0.796-13.087-2.063
			C57.556,258.288,57.849,257.323,58.535,257.439z"/>
		<path style="fill:#739983;" d="M94.469,197.927c3.324,3.1,6.132,11.411,1.604,14.614c-2.473,1.749-6.189,0.876-8.946,0.399
			c-3.489-0.604-7.999-1.146-10.576-3.731C69.224,201.857,89.755,193.531,94.469,197.927z"/>
		<path style="fill:#3B634B;" d="M80.118,220.634c0.738,0.177,1.374,0.652,2.106,0.879c0.795,0.247,1.626,0.362,2.457,0.316
			c0.329-0.018,0.399,0.5,0.078,0.575c-1.612,0.376-4.054,0.361-5.128-1.136C79.398,220.944,79.78,220.553,80.118,220.634z"/>
		<path style="fill:#3B634B;" d="M79.751,216.936c0.456-0.299,0.992,0.389,0.585,0.758c-0.508,0.461-0.918,1.008-1.224,1.622
			c-0.284,0.571-0.326,1.214-0.621,1.774c-0.203,0.385-0.779,0.271-0.896-0.117C77.127,219.42,78.553,217.722,79.751,216.936z"/>
		<path style="fill:#3B634B;" d="M96.981,216.31c0.594-0.57,1.235-1.021,1.688-1.728c0.441-0.689,0.729-1.459,0.858-2.265
			c0.069-0.437,0.767-0.326,0.762,0.103c-0.022,1.843-1.014,4.002-2.866,4.647C96.989,217.22,96.665,216.614,96.981,216.31z"/>
		<path style="fill:#3B634B;" d="M74.686,241.233c0.818-0.367,1.639-0.443,2.509-0.656c0.834-0.204,1.66-0.484,2.513-0.593
			c0.19-0.024,0.269,0.244,0.15,0.362c-1.184,1.173-3.498,1.91-5.102,1.422C74.537,241.702,74.444,241.342,74.686,241.233z"/>
		<path style="fill:#3B634B;" d="M82.033,229.567c0.56,0.462,1.124,0.919,1.68,1.385c0.587,0.493,0.856,0.808,1.205,1.467
			c0.126,0.239-0.086,0.58-0.372,0.484c-0.701-0.236-1.032-0.413-1.619-0.909c-0.598-0.507-1.182-1.031-1.773-1.547
			C80.545,229.915,81.424,229.064,82.033,229.567z"/>
		<path style="fill:#3B634B;" d="M76.296,256.29c1.494-0.923,3.632-0.724,5.318-0.699c0.36,0.005,0.441,0.535,0.086,0.632
			c-1.626,0.446-3.651,1.175-5.327,0.655C76.107,256.796,76.057,256.438,76.296,256.29z"/>
		<path style="fill:#3B634B;" d="M76.61,272.792c0.685,0.444,1.348,0.872,2.089,1.223c0.722,0.343,1.543,0.539,2.22,0.964
			c0.383,0.241,0.233,0.854-0.233,0.859c-1.642,0.015-3.448-1.342-4.466-2.541C75.998,273.036,76.284,272.581,76.61,272.792z"/>
		<path style="fill:#3B634B;" d="M80.523,271.642c0.202-0.573,0.326-1.167,0.543-1.735c0.154-0.4,0.714-0.34,0.747,0.101
			c0.091,1.198-0.27,2.915-1.075,3.829c-0.366,0.416-0.918-0.042-0.844-0.491C79.995,272.746,80.322,272.215,80.523,271.642z"/>
		<path style="fill:#3B634B;" d="M82.574,274.36c0.843,0.066,1.759,0.007,2.545-0.32c0.855-0.356,1.377-0.981,2.021-1.605
			c0.2-0.194,0.461,0.01,0.428,0.249c-0.3,2.175-3.259,3.359-5.124,2.639C81.97,275.14,81.978,274.314,82.574,274.36z"/>
	</g>
	<g>
		<path style="fill:#DD3C3C;" d="M98.116,265.935c1.899-2.462,8.806-2.466,11.006-0.02c0.151,2.874,0.049,8.368,0.082,12.383
			c0.02,2.478,0.228,5.987-0.082,7.689c-0.261,1.433-2.2,2.643-5.23,2.643c-3.547,0-5.352-1.376-5.479-2.594
			C97.857,280.728,97.566,268.493,98.116,265.935z"/>
		<path style="fill:#F45858;" d="M98.081,266.258c0,1.622,2.472,2.937,5.522,2.937c3.05,0,5.522-1.315,5.522-2.937
			c0-1.622-2.472-2.937-5.522-2.937C100.554,263.321,98.081,264.636,98.081,266.258z"/>
		<path style="fill:#DD3C3C;" d="M99.087,266.233c0,1.327,2.022,2.402,4.517,2.402c2.494,0,4.516-1.076,4.516-2.402
			c0-1.327-2.022-2.402-4.516-2.402C101.109,263.831,99.087,264.906,99.087,266.233z"/>
		<path style="fill:#B72121;" d="M100.081,266.258c0,0.34,0.519,0.616,1.159,0.616c0.64,0,1.159-0.276,1.159-0.616
			c0-0.34-0.519-0.616-1.159-0.616C100.6,265.642,100.081,265.918,100.081,266.258z"/>
	</g>
	<path style="opacity:0.5;fill:#CEB9A7;" d="M309.761,266.95c6.032,3.089,14.693,5.969,16.525,10.663
		c2.48,6.356-4.061,14.539-9.431,17.305c-5.581,2.874-13.821,5.534-17.419-0.18c-3.435-5.456-3.635-11.048-9.908-14.316
		c-4.038-2.104-13.558-1.954-18.53-2.511c-13.885-1.555-15.903-8.227-1.992-16.411c10.068-5.924,13.566-8.766,25.993-0.552
		C299.558,263.96,304.662,264.339,309.761,266.95z"/>
	<g>
		<g>
			<path style="fill:#CEB9A7;" d="M227.703,291.016c-1.263-5.525-9.633-9.799-19.794-9.799c-10.161,0-18.532,4.273-19.795,9.799
				h-0.183v1.778h0.03c0.316,6.055,9.114,10.911,19.948,10.911c10.834,0,19.632-4.857,19.948-10.911h0.03v-1.778H227.703z"/>
			<path style="fill:#E0CEC1;" d="M227.886,291.298c0,6.21-8.944,11.244-19.978,11.244c-11.034,0-19.978-5.034-19.978-11.244
				c0-6.21,8.944-11.244,19.978-11.244C218.942,280.054,227.886,285.088,227.886,291.298z"/>
			<g>
				<path style="fill:#BCA18E;" d="M207.909,285.407c7.003,0,12.715,3.076,13.139,6.958c0.017-0.153,0.041-0.305,0.041-0.46
					c0-4.097-5.901-7.418-13.18-7.418s-13.181,3.322-13.181,7.418c0,0.155,0.025,0.307,0.041,0.46
					C195.193,288.483,200.905,285.407,207.909,285.407z"/>
				<path style="fill:#CEB9A7;" d="M207.909,299.323c7.003,0,12.715-3.077,13.139-6.958c-0.424-3.882-6.136-6.958-13.139-6.958
					c-7.004,0-12.715,3.076-13.139,6.958C195.193,296.246,200.905,299.323,207.909,299.323z"/>
			</g>
		</g>
		<g>
			<path style="fill:#FCA96B;" d="M210.612,296.069l-0.009-0.527l-4.109,0.316l0.032,0.593c0.015,0.15,0.035,0.302,0.122,0.473
				c0.497,0.977,2.618,0.827,3.362,0.313C210.489,296.906,210.619,296.536,210.612,296.069z"/>
			<path style="fill:#FFC08D;" d="M209.905,294.633c-1.006-0.615-4.138,0.039-3.257,1.771c0.497,0.977,2.546,0.822,3.289,0.308
				C210.793,296.12,210.891,295.236,209.905,294.633z"/>
			<path style="fill:#FCA96B;" d="M209.641,294.853c-0.81-0.495-3.33,0.032-2.621,1.425c0.4,0.786,2.048,0.661,2.647,0.248
				C210.356,296.05,210.434,295.338,209.641,294.853z"/>
		</g>
	</g>
	<g>
		<path style="fill:#5E8570;" d="M208.553,287.701c-1.275-3.22-4.633-5.992-4.642-5.986c-1.416,0.914-3.872,2.36-5.674,4.122
			c2.306,2.039,4.716,4.262,6.158,6.926c2.35-0.449,8.142,0.729,9.041,0.924c1.327-1.265,3.704-3.971,5.433-5.478
			C215.861,286.185,210.737,286.705,208.553,287.701z"/>
		<path style="fill:#78A089;" d="M203.751,282.913l-3.785,2.998c0,0,4.637,4.391,5.076,5.871c3.144-0.907,8.024,0.779,8.024,0.779
			l3.969-4.125c0,0-4.501-1.331-8.924,0.133C206.827,285.862,203.751,282.913,203.751,282.913z"/>
	</g>
	<g>
		<path style="fill:#5E291B;" d="M175.358,207.704c-0.754-3.363-1.835-5.385-2.644-8.734c0.648-7.762-2.206-12.44-5.297-16.417
			c1.46-9.023-4.973-13.595-11.771-12.64c-0.272-0.147-2.894,16.514-1.966,23.435c0.581,4.333,0.726,9.356,3.586,12.927
			c2.759,3.445,7.093,4.93,11.301,5.629c1.903,0.316,5.75,1.642,6.99-0.356C176.266,210.404,175.622,208.883,175.358,207.704z"/>
		<g>
			<path style="fill:#B09B64;" d="M175.37,251.959c5.394,2.05,5.381,5.728,7.712,5.703c1.951-0.021,1.951-2.932-0.723-5.219
				c-1.907-1.631-3.976-2.292-2.29-2.894c1.687-0.603,5.784,3.374,7.906,3.856c2.123,0.482,5.107-2.048,6.915-4.82
				c1.807-2.771,5.181-9.519,5.663-11.447c0.482-1.928,4.699-6.266,5.904-8.314c1.205-2.048,0.723-4.338,2.049-5.302
				c0.442-0.321,0.852-0.723,1.209-1.116c0.015-0.082,0.025-0.155,0.041-0.24c0.326-1.716-1.069-2.289-2.06-3.148
				c-1.37-1.188-4.651-4.161-5.818-4.481c-8.443-2.314-12.083,1.109-18.22,1.504c-5.926,0.381-14.054,0.176-19.9,1.292
				c-6.36,1.215-35.731,11.529-35.804,11.561c-0.001,0-0.625,0.552-0.613,0.939c-3.911,7.645-6.435,17.11-9.759,25.017
				c-0.967,2.299-1.527,6.006-0.282,10.786c0.422,1.621-0.435,4.794,0.974,6.152c1.782,1.717,4.595,1.602,7.371,1.817
				c3.332,0.258,6.784,0.67,10.675,0.993c3.023,0.251,2.21-3.912,4.004-6.204c2.201-2.811,5.256-4.546,7.397-7.423
				c0.893-1.2,1.66-2.529,2.374-3.905c-0.76,0.201-1.568,0.328-2.43,0.395c-5.294,0.415-10.761-0.017-16.072-0.035
				c-0.516-0.002-1.29-0.166-0.455-1.097c3.592-4.006,9.195-4.405,16.938-4.37c1.45-2.933,3.302-6.385,3.374-9.793
				c0.081-3.855-1.205-10.27-2.153-12.454c2.161-1.523,4.884-3.86,7.547-2.717c1.642,0.704,3.456,3.088,4.479,4.486
				c1.305,1.782,1.199,3.018,3.385,2.536c2.217-0.489,5.046-2.885,7.185-3.828c1.785-0.786,3.62-1.481,5.525-1.918
				c3.563-0.818,8.434-1.858,12.049,0.552c-2.693,0.462-9.569,9.702-11.241,11.694c0,0.248-3.07,2.689-2.314,5.053
				c-2.057,1.125-4.059,1.946-5.232,3.5c-0.42,0.556-0.698,1.23-0.904,1.943C171.199,250.843,173.037,251.073,175.37,251.959z"/>
			<path style="fill:#9B8451;" d="M178.87,263.608c3.236,2.268,8.483-1.711,9.897-5.367c1.73-1.737,4.977-3.68,6.371-5.357
				c4.585-5.516,7.731-14.042,11.111-18.975c4.048-5.908,2.553-6.421,3.467-11.503c-0.357,0.393-0.767,0.794-1.209,1.116
				c-1.325,0.964-0.844,3.253-2.049,5.302c-1.205,2.048-5.422,6.387-5.904,8.314c-0.482,1.928-3.856,8.676-5.663,11.447
				c-1.808,2.771-4.792,5.302-6.915,4.82c-2.122-0.482-6.219-4.458-7.906-3.856c-1.687,0.602,0.383,1.263,2.29,2.894
				c2.674,2.287,2.674,5.198,0.723,5.219c-2.331,0.025-2.317-3.653-7.712-5.703c-2.333-0.887-4.171-1.116-5.592-0.945
				c-0.534,1.855-0.525,3.999-0.872,5.206C173.329,256.626,174.818,260.768,178.87,263.608z"/>
			<path style="fill:#9B8451;" d="M189.468,228.824c-3.615-2.41-8.486-1.369-12.049-0.552c-1.904,0.437-3.74,1.132-5.525,1.918
				c-2.139,0.942-4.968,3.339-7.185,3.828c-2.185,0.482-2.08-0.755-3.385-2.536c-1.023-1.398-2.837-3.781-4.479-4.486
				c-2.664-1.143-5.386,1.194-7.547,2.717c0.948,2.184,2.234,8.599,2.153,12.454c-0.072,3.408-1.924,6.86-3.374,9.793
				c-7.743-0.035-13.346,0.364-16.938,4.37c-0.835,0.932-0.062,1.095,0.455,1.097c5.311,0.018,10.778,0.45,16.072,0.035
				c0.862-0.068,1.67-0.195,2.43-0.395c1.495-2.881,2.65-6.048,3.497-9.237c5.487,0.676,10.705-1.362,15.893-3.507
				c2.699-1.116,7.217-3.593,8.74-3.805C179.899,238.525,186.775,229.286,189.468,228.824z"/>
		</g>
		<path style="fill:#77382C;" d="M163.983,215.675c-0.556-0.185-1.112-0.369-1.668-0.554c2.273-7.076,1.147-13.235,0.78-20.596
			c-0.306-6.155,0.875-13.225-3.619-18.438c-5.517-6.399-19.543-4.39-21.099-3.354c-3.565,2.374-7.106,5.57-10.477,8.175
			c-2.664,2.059-4.48,2.579-5.667,5.835c-1.609,4.413,1.4,11.741,2.609,18.143c1.295,6.861,2.57,12.853,3.194,23.209
			c0.112,1.864,1.626,2.979,3.94,3.818c3.527,1.279,7.814,2.066,11.473,1.52c9.513-1.421,16.085-8.456,21.188-16.151
			C165.047,216.662,164.616,215.884,163.983,215.675z"/>
		<path style="fill:#5E291B;" d="M132.807,176.944c-0.98,0.881-2.262,2.959-0.334,5.047c1.928,2.089,8.069,7.602,16.073,5.853
			c7.299-1.595,7.299-7.459,6.259-9.628c-0.81-1.69-4.097-4.258-5.463-5.141c-1.365-0.884-6.733-2.268-8.267-1.817
			C139.542,171.708,133.864,175.994,132.807,176.944z"/>
		<g>
			<path style="fill:#FFB9A4;" d="M149.644,185.023c4.197-2.872,3.494-6.507,2.53-7.953c-0.719-0.328-1.565-2.888-1.415-4.419
				c-2.186-1.19-10.571-7.015-12.101-3.079c-0.82,2.111-3.648,7.005-4.499,9.928C139.602,185.284,147.259,186.654,149.644,185.023z"
				/>
			<path style="fill:#FFC9B6;" d="M162.19,160.99c0.139-3.527-0.261-8.005-2.759-10.734c-2.469-2.697-7.037-3.316-10.526-3.356
				c-5.408-0.062-9.677,5.575-9.287,12.53c0.36,6.424,3.804,16.557,10.778,18.461C158.155,180.009,161.978,166.355,162.19,160.99z"
				/>
			<path style="fill:#381509;" d="M172.528,152.822c0.388-0.327,0.127-1.137-0.418-1.081c-1.44,0.149-2.889,0.28-4.335,0.429
				c0.204-0.406-0.054-0.858-0.448-1.014c-1.571-0.625-3.299-0.857-4.977-0.623c-2.8-4.723-11.969-10.401-16.543-5.626
				c-2.617-2.035-6.435,0.34-8.476,2.521c-2.48,2.651-4.978,7.842-2.104,10.744c-0.359,0.3-0.718,0.602-1.073,0.895
				c-0.745,0.615-1.377,1.285-1.029,2.323c0.29,0.863,1.078,1.429,1.965,1.535c0.126,0.015,0.268,0.021,0.414,0.022
				c-1.55,1.044-2.863,2.538-3.843,4.03c-0.216,0.328-0.074,0.746,0.227,0.958c1.23,0.867,3.095,0.953,4.522,0.324
				c-0.199,0.437-0.4,0.873-0.596,1.311c-0.335,0.749-0.767,1.556-0.678,2.405c0.168,1.605,1.874,1.998,3.21,1.669
				c2.271-0.559,4.916-3.29,5.079-5.91c-0.023-1.961,0.294-4.18,0.479-5.325c0.576-0.071,4.866,0.659,9.793-6.075
				c0.373,0.958,0.923,1.859,1.524,2.634c1.226,1.58,3.265,3.983,5.352,4.397c1.491,0.296,2.982-0.539,2.97-2.167
				c-0.004-0.521-0.161-0.98-0.405-1.402c1.004,0.388,2.098,0.593,3.271,0.592c2.036-0.003,8.149-2.954,5.298-3.859
				c-1.317-0.418-4.398,0.268-5.962-0.761c0.941-0.072,1.907-0.32,2.679-0.577C169.953,154.682,171.304,153.855,172.528,152.822z"/>
			<path style="fill:#FFC9B6;" d="M145.803,162.876c0,0-2.202-3.758-3.923-1.507c-1.721,2.251-0.27,6.974,1.815,6.919
				C145.78,168.234,145.803,162.876,145.803,162.876z"/>
		</g>
		<path style="fill:#5E8570;" d="M161.165,146.971c-1.078-2.796-3.573-4.65-5.797-6.561c-2.607-2.24-9.656-5.943-13.026-6.759
			c-4.149-1.005-6.759,0.826-7.095,4.158c-0.277,2.743-0.564,5.958-1.202,8.643c-0.363,1.523-0.68,5.084-0.402,6.638
			c0.7,3.916,1.358,3.282,5.181,3.134c2.684-0.104,5.463-0.384,8.103-1.08c5.637-0.322,11.094-2.573,14.027-7.377
			c0.093-0.152,0.122-0.296,0.126-0.433C161.168,147.246,161.222,147.119,161.165,146.971z"/>
		<path style="fill:#4A6957;" d="M159.839,143.41c-0.393-0.236-0.785-0.187-0.991,0.105c0.363,0.457,0.659,0.834,0.979,1.127
			c-0.664,6.656-18.609,9.467-26.184,8.448c-0.078-0.683-0.078-0.683-0.104-1.362c-0.347,0.005-0.714,0.065-0.773,0.785
			c-0.147,1.8-0.557,2.278-0.468,4.766c0.027,0.757,0.912,1.733,2.436,2.225c7.63,2.463,16,0.781,22.869-3.938
			c2.69-1.848,5.465-3.884,5.589-6.677C163.266,147.169,161.985,144.7,159.839,143.41z"/>
		<path style="fill:#5E291B;" d="M138.738,211.593c0,0,2.38,2.773,6.507,4.207c3.681,1.279,6.891,1.336,6.891,1.336
			s-3.57-2.571-6.074-3.394C143.558,212.918,138.738,211.593,138.738,211.593z"/>
		<path style="fill:#FFB569;" d="M194.252,224.139c-0.665-4.77-7.603-29.516-8.614-32.931c-9.822,5.129-34.734,18.635-37.096,19.999
			c2.35,10.704,6.475,22.421,8.965,34.139C163.619,242.011,187.042,228.302,194.252,224.139z"/>
		<path style="fill:#5E291B;" d="M148.542,221.876c-0.964-1.205-2.739-3.255-6.087-2.612c-2.626,0.504-8.734,0.433-10.983,2.008
			c1.402-2.972,4.182-5.956-0.046-14.781c2.293-5.417,0.564-13.656-0.882-16.307c-0.939-1.721-3.857-8.119-7.149-6.667
			c-4.008,1.767-6.989,4.664-9.077,11.005c-0.984,2.987-0.544,7.792,1.848,10.925c-3.294,4.9-3.675,12.416-0.08,21.689
			c0.2,0.516-0.523,2.037-0.08,3.502c0.727,2.406,1.324,2.166,3.535,3.648c4.2,2.815,11.423,1.533,18.12,0.924
			c4.236-0.385,12.195-0.603,13.245-6.627C148.85,228.823,147.867,223.611,148.542,221.876z"/>
		<g>
			<path style="fill:#9B8451;" d="M163.943,206.413c-0.113-0.3-0.463-0.1-0.394,0.199c0.617,2.686,1.326,5.321,2.075,7.958
				c0.148,0.522,0.45,1.311,0.59,1.844c-2.244-2.27-5.611-4.954-8.184-6.513c-0.694-0.421-0.723,0.203-0.556,0.754
				c1.46,4.804,3.161,9.853,5.502,14.161c0.276,0.509,0.977-0.002,0.78-0.542c-1.572-4.296-3.428-8.458-5.07-12.729
				c2.899,2.388,5.668,4.744,8.242,7.556c0.248,0.698,0.522,1.379,0.879,2.007c0.219,0.386,0.907,0.129,0.708-0.789
				C168.289,219.275,165.4,210.275,163.943,206.413z"/>
			<path style="fill:#9B8451;" d="M165.412,227.911c-0.457,0.288-0.66,0.769-0.733,1.316c-0.582-0.6-1.262-0.97-2.014-0.714
				c-0.777,0.264-1.076,0.991-1.135,1.853c0-0.001-0.001-0.001-0.001-0.002c-0.346-0.669-1.308-0.074-0.968,0.598
				c0.566,1.116,1.499,2.512,2.064,3.627c0.303,0.597,0.941,0.141,0.726-0.517c-0.176-0.538-0.524-1.295-0.726-1.824
				c-0.39-1.022-0.384-2.103,0-2.424c0.384-0.321,1.097,0,1.889,1.198c0.309,0.468,0.309,0.468,0.825,1.647
				c0.278,0.636,1.067,0.148,0.816-0.512c-0.146-0.385-0.507-1.956-0.503-2.228c0.011-0.888,0.433-1.158,0.973-0.522
				c0.564,0.665,1.003,1.687,1.366,2.48c0.225,0.492,0.896,0.271,0.63-0.451C168.274,230.494,166.82,227.023,165.412,227.911z"/>
			<path style="fill:#9B8451;" d="M177.42,225.792c-0.42-1.553-1.797-4.364-3.747-3.593c-0.795,0.315-1.1,1.018-1.164,1.825
				c-0.392,0.059-0.756,0.508-0.515,1l1.421,2.727c0.33,0.673,0.965,0.346,0.693-0.38c-0.258-0.691-1.293-3.564-0.376-4.008
				c1.544-0.747,2.369,1.817,2.681,2.483C176.721,226.502,177.606,226.481,177.42,225.792z"/>
			<path style="fill:#9B8451;" d="M178.377,212.753c-0.383,0.654-0.501,1.399-1.095,1.887c-0.842,0.692-1.925,0.293-2.503-0.602
				c-0.529-0.819-0.791-2.214-0.37-3.168c0.721-1.634,1.742,0.337,0.986,1.08c-0.287,0.281-0.576,0.383-0.82,0.71
				c-0.048,0.064-0.027,0.152,0.051,0.174c1.422,0.396,2.399-1.507,1.573-2.682c-0.967-1.378-2.603-0.124-2.787,1.145
				c-0.255,1.761,0.591,4.505,2.147,4.785c2.108,0.379,3.273-1.431,3.26-3.159C178.817,212.65,178.521,212.508,178.377,212.753z"/>
			<path style="fill:#9B8451;" d="M173.434,215.711c-0.383,0.654-0.501,1.399-1.095,1.887c-0.842,0.692-1.925,0.293-2.503-0.602
				c-0.529-0.819-0.791-2.213-0.37-3.168c0.721-1.634,1.742,0.338,0.986,1.08c-0.287,0.282-0.576,0.383-0.82,0.71
				c-0.048,0.064-0.027,0.152,0.05,0.174c1.422,0.396,2.399-1.507,1.573-2.682c-0.967-1.378-2.603-0.124-2.787,1.145
				c-0.256,1.761,0.591,4.505,2.147,4.785c2.107,0.379,3.273-1.431,3.26-3.16C173.874,215.608,173.578,215.466,173.434,215.711z"/>
			<path style="fill:#9B8451;" d="M181.419,221.857c-0.319,0.575-0.417,1.231-0.912,1.661c-0.701,0.609-1.603,0.258-2.085-0.53
				c-0.44-0.721-0.658-1.947-0.308-2.787c0.6-1.438,1.451,0.297,0.821,0.95c-0.239,0.248-0.48,0.337-0.683,0.624
				c-0.04,0.056-0.023,0.134,0.042,0.153c1.184,0.349,1.998-1.325,1.311-2.359c-0.805-1.212-2.168-0.11-2.321,1.007
				c-0.213,1.549,0.492,3.963,1.788,4.21c1.755,0.333,2.726-1.259,2.715-2.78C181.786,221.767,181.539,221.641,181.419,221.857z"/>
			<path style="fill:#9B8451;" d="M185.13,210.545c-0.822-1.337-1.48-2.717-2.164-4.177c-0.044-0.094-1.593-5.173-1.933-6.235
				c-0.306-0.957-1.193-0.846-0.862,0.193c0.322,1.012,1.306,4.676,1.64,5.789c0.484,1.611,0.731,3.279,0.263,4.187
				c-0.928,1.801-2.438,1.405-2.557-0.081c0.01-1.638,0.769-2.81,1.872-2.876c0.247-0.036,0.257-0.483,0.032-0.559
				c-3.49-1.17-3.659,6.52-0.493,5.94c1.464-0.268,2.093-1.57,2.219-3.203c0.406,0.726,0.881,1.363,1.462,1.841
				C185.146,211.808,185.47,211.098,185.13,210.545z"/>
			<path style="fill:#9B8451;" d="M170.505,225.018c-1.13-0.598-2.543,0.314-2.631,1.51c-0.487,2.199,2.711,6.222,4.153,2.931
				C172.716,227.886,171.954,225.787,170.505,225.018z M171.111,229.164c-0.757,0.851-1.679,0.167-1.982-0.348
				c-0.721-1.226-0.401-2.295-0.18-2.656c0.44-0.719,1.305-0.417,1.79,0.045C171.339,226.775,171.625,228.336,171.111,229.164z"/>
			<path style="fill:#9B8451;" d="M186.796,220.648c-0.391-1.805-0.827-3.244-1.505-4.883c-0.247-0.597-0.722-0.282-0.596,0.187
				c0.298,1.107,0.487,2.482,0.551,3.59c0.044,0.761-0.758,1.949-1.396,1.579c-0.942-0.547-1.365-2.579-1.641-3.652
				c-0.062-0.242-0.493-0.379-0.411,0.162c0.155,1.012,0.184,1.767,0.51,2.707c0.228,0.658,0.569,1.697,1.169,1.906
				c1.35,0.471,1.936-0.47,2.491-1.457c0.142,0.635,0.296,1.011,0.364,1.664c0.082,0.63,0.279,2.262-0.269,3.118
				c-0.202,0.316-0.675,0.578-1.131,0.402c-0.352-0.137-0.683-0.632-0.944-0.959c-0.172-0.162-0.454,0.054-0.397,0.316
				c0.48,2.201,2.928,2.187,3.522-0.199C187.479,223.654,187.098,222.041,186.796,220.648z"/>
		</g>
		<path style="fill:#FFC9B6;" d="M146.863,221.701c0.823-0.826,3.417-3.424,3.417-3.424s0.518,1.546,0.822,2.916
			c1.38-0.548,5.74-2.414,7.788-3.109c3.886-1.318,4.771,5.49,0.464,8.981c-4.307,3.491-9.526,4.396-11.87,1.802
			C146.147,227.39,145.397,223.171,146.863,221.701z"/>
		<path style="fill:#FFC9B6;" d="M186.696,199.664c-2.911,2.062-3.053,5.784-1.767,8.515c1.285,2.731,5.53,2.731,6.587-1.285
			C192.573,202.877,190.552,196.932,186.696,199.664z"/>
		<path style="fill:#C1A997;" d="M163.546,263.766c-0.733,1.691-2.945,6.985-3.079,9.637c-0.161,3.182,3.611,10.221,7.589,6.942
			c3.979-3.278,9.291-12.828,9.291-12.828S163.692,263.428,163.546,263.766z"/>
		<path style="fill:#CEB9A7;" d="M170.408,256.529c0,0,3.474-2.205,7.038-1.322c3.564,0.883,9.166,3.481,14.349,4.013
			c5.184,0.531,7.272,5.909,7.754,9.807c0.482,3.898-2.089,5.202-6.908,4.229c-4.82-0.973-8.735-1.952-13.124-2.587
			c-4.388-0.635-8.12-0.697-8.12-0.697L170.408,256.529z"/>
		<g>
			<path style="fill:#B09B64;" d="M126.057,271.96c6.165-1.846,8.86-0.362,13.887,0.243c3.34,0.401,7.712-0.482,11.844-3.495
				c3.504-2.555,8.679-2.983,10.427-3.399c1.748-0.416,5.674,0.568,8.25-0.446c2.576-1.014,3.964-5.093,3.781-7.221
				c-0.068-0.789-0.196-1.585-0.33-2.275c-0.731-0.813-1.514-1.467-2.243-1.88c-1.231-0.699-3.213-0.601-5.656,0.507
				c-2.385-3.078-4.808-0.811-7.583,0.333c-7.526,3.101-28.239,1.819-28.239,1.819s-14.737,12.053-11.919,15.643
				c0.183,0.234,0.399,0.443,0.639,0.635C120.593,272.503,124.01,272.572,126.057,271.96z"/>
			<path style="fill:#9B8451;" d="M164.636,271.692c2.783-0.516,5.277,0.55,7.293-0.34c2.051-0.906,3.72-2.848,4.529-7.744
				c0.568-3.436-0.823-6.329-2.542-8.242c0.134,0.691,0.262,1.487,0.33,2.275c0.183,2.128-1.205,6.207-3.781,7.221
				c-2.576,1.014-6.502,0.03-8.25,0.446c-1.748,0.416-6.923,0.844-10.427,3.399c-4.132,3.013-8.504,3.896-11.844,3.495
				c-5.027-0.604-7.722-2.089-13.887-0.243c-2.046,0.613-5.464,0.543-7.144,0.463c3.447,2.759,12.556,1.456,22.429,2.698
				C149.949,276.203,157.688,272.979,164.636,271.692z"/>
		</g>
		<path style="fill:#9B8451;" d="M166.613,255.366c0,0,0.268,2.13-0.053,4.299c-0.321,2.169,0.522,2.305,1.486,0.624
			C169.011,258.608,166.613,255.366,166.613,255.366z"/>
		<path style="fill:#9B8451;" d="M163.193,256.779c0,0-1.696,2.33-3.074,3.615c-1.378,1.285-0.448,2.965,1.537,1.041
			C163.641,259.51,163.193,256.779,163.193,256.779z"/>
		<path style="fill:#9B8451;" d="M177.217,244.97c0,0,2.571-2,4.98-2.647c2.41-0.647,4.097,0.237,1.607,1.522
			C181.314,245.131,177.217,244.97,177.217,244.97z"/>
	</g>
	<g>
		<path style="fill:#FFC9B6;" d="M246.353,138.447c0,0-5.887,1.555-9.757,3.171c-3.87,1.616-5.196,2.401-6.34,3.183
			c-1.144,0.783-0.973,2.499,0.88,2.146c2.964-0.565,3.433-1.116,4.816-0.549c0.879,0.36-1.445,2.404-4.144,4.46
			c-2.699,2.056-6.342,3.843-7.179,4.955c-0.837,1.112,2.648,4.46,8.615,2.535c5.967-1.925,10.321-5.267,12.102-7.635
			c2.242-2.982,7.297-7.359,7.297-7.359L246.353,138.447z"/>
		<path style="fill:#381509;" d="M321.179,267.637c0,0,1.545,5.737,1.352,9.058c-0.194,3.321-0.985,4.112-1.989,5.232
			c-1.004,1.12-2.182,0.637-2.182,0.637s-0.462,6.847-3.708,9.614c-3.246,2.767-9.132,3.03-11.835,2.025
			c-2.703-1.004-0.926-5.908,1.72-10.715c2.646-4.807,6.02-9.978,6.863-14.323C317.873,268.273,321.179,267.637,321.179,267.637z"/>
		<path style="fill:#381509;" d="M292.176,251.972c0,0,0.293,2.463,1.064,5.039c0.771,2.576-0.176,6.168-0.176,6.168
			s-0.558,1.583-2.944,2.051c-2.222,0.436-4.02-0.097-4.02-0.097s-2.186,2.641-5.042,4.663c-2.856,2.021-9.158,3.591-10.873,3.33
			c-2.766-0.421-4.247-2.578-4.035-3.969c0.212-1.39,3.472-5.242,6.143-6.909c1.738-1.085,5.686-4.748,6.87-6.022
			c1.961-2.111,3.408-4.44,3.408-4.44L292.176,251.972z"/>
		<path style="fill:#471A0E;" d="M272.81,222.99c-1.778-10.458-3.848-9.753-3.803-19.471c0.022-4.774,1.73-15.696,5.185-38.371
			c1.794-11.776,4.595-13.751,8.301-21.175c0.382-0.766,12.306,5.343,17.743,8.224c0.492,0.261,5.234,12.814,3.158,22.618
			c-0.797,3.759-8.315,28.896-12.559,33.611c2.706,11.143,5.918,20.579,2.706,46.573c-2.71,3.639-10.336,3.116-15.253,0.245
			C278.289,249.899,274.004,230.012,272.81,222.99z"/>
		<path style="fill:#541F14;" d="M293.708,174.382c-6.666-8.154-5.292-14.344-2.092-24.046c0.175-0.531,27.889-4.241,28.228-3.646
			c10.512,18.422,5.942,50.257,2.705,68.748c7.597,26.024,2.031,41.342,1.452,53.758c-3.796,2.596-11.386,3.275-16.288-1.559
			c-2.212-15.851-4.919-32.77-3.764-50.501C301.95,211.897,294.239,187.61,293.708,174.382z"/>
		<path style="fill:#541F14;" d="M242.894,137.839c3.649-6.317,15.27-15.913,23.236-20.187c0-3.729,0-13.112,3.871-20.989
			c0.816-4.402,0.259-10.693,3.002-15.581c3.068-5.466,6.524-6.973,11.466-8.585c1.33-0.434,2.719-0.412,3.75,0.778
			c1.401,1.617,1.116,4.422,1.134,6.327c0.029,3.233-0.016,6.469-0.037,9.702c-0.026,3.91-6.09,13.217-7.189,14.869
			c-1.333,2.004,0.163,20.575-5.61,27.722c-1.225,1.517-19.499,15.141-27.527,16.41C246.854,144.956,243.572,141.53,242.894,137.839
			z"/>
		<path style="fill:#E0CEC1;" d="M288.222,77.484c6.726-2.815,14.732,0.823,14.438,0.494c-0.202-0.226,9.336,5.293,9.349,5.327
			c6.809,2.54,13.793,4.38,17.799,13.529c1.95,4.455-5.071,13.99-7.998,26.907c-1.317,5.81-1.455,14.096,0.694,17.954
			c1.503,2.699,4.816,6.742-4.903,9.797c-2.826,0.888-15.959,5.965-23.615,4.543c-3.541-0.658-20.574-10.093-15.378-13.702
			c1.376-0.956,2.504-2.851,1.513-4.599c-0.829-1.462-2.324-4.13-1.691-7.031c1.555-7.125,0.292-9.93-0.76-15.504
			c-4.929-5.16-0.575-12.936,2.447-21.249C282.166,88.31,281.321,80.372,288.222,77.484z"/>
		<path style="fill:#FFB9A4;" d="M289.833,75.998c0-0.096-0.007-0.208-0.01-0.31c3.99,0.611,9.255-1.679,12.709-4.09
			c1.856,4.534,2.308,6.258,5.119,10.833c-1.504,0.073-4.473,4.209-6.935,8.554c-1.045,1.844-5.56,6.616-8.4,5.514
			c-4.377-1.698-2.186-5.202-2.315-10.131C289.909,82.916,289.839,79.452,289.833,75.998z"/>
		<path style="fill:#DD3C3C;" d="M286.667,111.681c0.742-3.966,1.878-7.668,2.685-10.049c0.001-0.002-0.002-0.004-0.001-0.005
			c0.173-0.509-1.329-5.113-1.329-5.113l4.31-1.702l2.517,3.026c0,0-1.432,3.364-3.094,4.247l0,0
			c0.091,4.4,0.249,12.459,0.344,19.766c0.152,11.67,0,20.063,0,20.063s-2.749,3.89-5.535,5.717
			c-1.934-3.467-2.689-7.881-2.689-7.881S285.417,118.364,286.667,111.681z"/>
		<path style="fill:#FFFFFF;" d="M311.033,82.517c0,0-7.201,3.104-10.217,5.601c-4.039,3.345-5.967,4.245-7.979,6.178
			c-0.19-0.483-0.736-9.565-0.736-9.565s-3.367,0.422-3.339,0.484c0.028,0.062-1.927,1.859-2.692,5.469
			c-0.765,3.61,0.599,7.982,0.599,7.982l5.599-3.42l3.834,6.84c0,0,7.48-6.404,10.89-10.307
			C310.401,87.876,311.033,82.517,311.033,82.517z"/>
		<path style="fill:#5E291B;" d="M289.351,77.459c0,0-6.509-0.414-9.614,6.672c-3.105,7.086-5.445,16.322-5.545,27.297
			c-0.072,8.005,1.682,18.464,0.329,24.16c-1.165,4.902-7.662,22.947-7.662,22.947s0.497,7.406,2.894,10.331
			c3.095,3.776,6.46,3.452,6.46,3.452s4.027-22.372,4.435-25.9c0.408-3.528,1.731-22.161,1.367-27.689
			c-0.365-5.528,2.802-23.952,4.054-28.044s8.78-12.474,8.78-12.474L289.351,77.459z"/>
		<path style="fill:#753427;" d="M290.635,83.291c0,0-2.212,2.832-3.989,7.11c-1.776,4.278-2.345,13.676-2.852,19.162
			c-0.506,5.486-1.687,10.998-1.687,10.998s-2.073-5.968-2.453-10.021c-0.38-4.053-0.901-7.174-0.901-7.174l2.832-2.216
			l-2.623-6.338c0,0,6.921-15.073,9.844-15.948C291.728,77.989,290.635,83.291,290.635,83.291z"/>
		<path style="fill:#5E291B;" d="M307.977,80.644c0,0-8.246,10.844-10.671,25.843c-2.424,14.999-0.894,30.448,0,41.164
			c1.128,13.518,2.131,32.747,2.131,32.747s13.433,2.219,20.966,0.623c8.05-1.705,10.882-9.585,10.882-9.585s0-16.436-6.839-36.382
			c-2.246-6.55-0.82-20.765,1.84-28.944c1.582-4.865-0.716-14.576-4.806-19.004C318.693,84.088,311.885,82.787,307.977,80.644z"/>
		<path style="fill:#753427;" d="M305.426,78.473c0,0,4.708,0.294,6.496,3.877c-0.837,1.852-2.811,4.321-3.699,8.938
			c-0.889,4.617-0.576,9.784-0.576,9.784l-5.312,2.375l3.104,5.475l-9.209,11.916c0,0-1.379-15.697,2.254-27.039
			C302.118,82.457,305.426,78.473,305.426,78.473z"/>
		<path style="fill:#FFC9B6;" d="M281.751,59.135c3.668-4.506,11.69-5.536,16.759-2.464c1.217,0.362,2.335,0.904,3.247,1.713
			c3.305,2.935,2.94,8.196,1.953,12.077c-1.489,5.854-9.817,19.311-17.514,14.279c-4.094-2.676-6.755-9.323-7.415-13.974
			C278.193,66.631,279.079,62.418,281.751,59.135z"/>
		<path style="fill:#381509;" d="M276.432,50.507c2.568-3.454,9.128-7.59,13.437-5.183c1.481,0.827,2.321,2.526,2.228,4.055
			c4.171-0.762,11.691,1.948,13.556,5.532c3.172,6.095,0.964,16.523-1.818,19.658c-2.906-2.532-7.393-7.915-8.578-13.079
			c-4.793,2.304-11.342,2.547-16.048-0.16C275.261,59.059,273.597,54.321,276.432,50.507z"/>
		<path style="fill:#FFC9B6;" d="M296.622,67.58c0,0,2.336-3.878,4.489-1.043c3.265,4.299-1.519,6.402-1.519,6.402L296.622,67.58z"
			/>
		<path style="fill:#541F14;" d="M319.95,85.845c6.336,1.011,10.195,2.151,14.654,12.35c4.181,9.564,0.988,13.671,3.016,20.12
			c2.028,6.449,1.184,8.014,1.763,13.221c0.579,5.208-0.833,5.945-2.779,7.502c-1.599,1.28,0.612,2.849-11.906,8.594
			c-8.016,3.679-13.426,2.606-13.426,2.606l-4.287-10.217c0,0-1.6,0.051,4.046-5.163c6.385-5.896,11.134-6.713,11.134-6.713
			s-2.334-7.693-5.521-14.597C313.46,106.645,315.473,87.784,319.95,85.845z"/>
		<path style="fill:#FFC9B6;" d="M306.986,140.022c0,0,3.237-1.005,4.984,3.2c1.283,3.088,0.434,5.804-0.698,7.017
			c-1.698,0-4.273,0.57-6.04,1.855c-3.956,2.877-8.652,8.423-12.132,10.113c-5.034,2.445-6.372-0.787-6.795-3.781
			c-0.423-2.993,2.1-5.313,4.348-7.068c2.446-1.909,3.935-3.467,3.073-3.996c-0.57-0.35-3.396,0.874-5.337,0
			c-2.014-0.907-1.164-2.361,2.167-2.603c1.693-0.123,2.468-1.284,5.676-1.698c2.507-0.323,3.252,0.931,4.043,0.523
			C302.903,142.23,305.544,141.072,306.986,140.022z"/>
		<g>
			<path style="fill:#5E8570;" d="M232.861,149.053c1.33-3.357,4.83-6.247,4.839-6.241c1.477,0.953,4.036,2.461,5.916,4.297
				c-2.405,2.125-4.917,4.443-6.421,7.221c-2.45-0.469-8.488,0.76-9.426,0.964c-1.383-1.319-3.861-4.14-5.664-5.711
				C225.242,147.473,230.583,148.014,232.861,149.053z"/>
			<path style="fill:#78A089;" d="M237.867,144.061l3.946,3.126c0,0-4.835,4.578-5.292,6.12c-3.278-0.945-8.365,0.812-8.365,0.812
				l-4.138-4.301c0,0,4.693-1.387,9.304,0.139C234.66,147.136,237.867,144.061,237.867,144.061z"/>
		</g>
	</g>
</g>
<g>
	<g>
		<path style="fill:#DD3C3C;" d="M74.485,45.157l-0.596,12.471c-0.112,2.687-0.244,6.345-0.396,10.975h-8.563l-1.038-23.446H74.485z
			"/>
		<path style="fill:#DD3C3C;" d="M100.755,45.157c-0.143,2.056-0.341,5.643-0.595,10.761c-0.153,3.766-0.28,8.096-0.382,12.99
			c-1.333-1.048-3.363-2.61-6.091-4.686c-1.18-0.824-2.941-2.061-5.281-3.709l-0.153,8.09h-4.915
			c-0.082-2.066-0.27-5.963-0.565-11.693c-0.254-4.64-0.514-8.558-0.778-11.753h7.663l5.679,5.373c0-1.231-0.021-2.198-0.061-2.9
			c-0.031-0.621-0.092-1.445-0.183-2.473H100.755z"/>
		<path style="fill:#DD3C3C;" d="M118.049,45.157l-0.656,9.662c-0.377-0.061-1.191-0.167-2.442-0.32
			c-0.855-0.082-1.791-0.132-2.809-0.153l-0.229,2.916c1.119,0.031,2.946,0.005,5.48-0.076c-0.112,0.376-0.29,1.079-0.534,2.106
			c-0.143,0.621-0.27,1.338-0.382,2.152c-0.296-0.071-1.033-0.163-2.213-0.275c-0.549-0.03-1.364-0.041-2.442-0.03l-0.152,3.404
			c0.763-0.01,2.167-0.076,4.213-0.198c0.387-0.031,1.022-0.153,1.908-0.366c-0.082,0.316-0.27,1.074-0.565,2.274
			c-0.143,0.621-0.315,1.404-0.519,2.351h-13.662l-0.443-11.967c-0.082-2.738-0.28-6.564-0.595-11.479H118.049z"/>
		<path style="fill:#DD3C3C;" d="M135.405,45.157l-0.656,9.662c-0.376-0.061-1.191-0.167-2.442-0.32
			c-0.855-0.082-1.791-0.132-2.809-0.153l-0.229,2.916c1.119,0.031,2.946,0.005,5.48-0.076c-0.112,0.376-0.29,1.079-0.534,2.106
			c-0.143,0.621-0.27,1.338-0.382,2.152c-0.295-0.071-1.033-0.163-2.213-0.275c-0.549-0.03-1.364-0.041-2.442-0.03l-0.152,3.404
			c0.763-0.01,2.167-0.076,4.213-0.198c0.387-0.031,1.023-0.153,1.908-0.366c-0.081,0.316-0.27,1.074-0.565,2.274
			c-0.143,0.621-0.316,1.404-0.519,2.351H120.4l-0.443-11.967c-0.081-2.738-0.28-6.564-0.595-11.479H135.405z"/>
		<path style="fill:#DD3C3C;" d="M157.57,57.063c0,3.674-1.14,6.564-3.419,8.67c-2.351,2.188-5.663,3.282-9.938,3.282
			c-2.748,0-4.869-0.137-6.365-0.412l-0.412-11.342c-0.132-2.91-0.372-6.925-0.717-12.043c2.208-0.315,4.513-0.474,6.915-0.474
			c4.284,0,7.638,0.998,10.06,2.992C156.277,49.874,157.57,52.982,157.57,57.063z M151.311,58.94c0-1.496-0.483-2.6-1.45-3.313
			c-0.804-0.59-1.831-0.86-3.083-0.809l-0.213,9.571c1.302-0.081,2.366-0.504,3.19-1.267
			C150.792,62.177,151.311,60.783,151.311,58.94z"/>
	</g>
	<g>
		<path style="fill:#FFB569;" d="M147.06,90.836c0.913,0,2.456,0,3.747-0.032c0.756,0,1.544,0,2.362-0.032v-0.944
			c0-0.536-0.031-1.197-0.031-1.732c0-1.071,0.189-6.708,0.189-7.118c0.032-0.252,0.189-0.284,0.346-0.284
			c0.126,0,0.252,0.032,0.347,0.032c0.126,0.032,0.283,0.032,0.473,0.032c0.157,0,0.378,0,0.535,0.063
			c0.221,0.063,0.315,0.158,0.315,0.315c0,0.063-0.032,0.157-0.063,0.252c-0.031,0.346-0.157,1.291-0.283,2.708
			c-0.126,1.417-0.221,8.157-0.221,9.543c0,1.417-0.189,6.11-0.189,6.677c0,0.315-0.032,0.819-0.032,1.26
			c0,0.378,0.032,0.693,0.063,0.913c0.031,0.095,0.031,0.158,0.031,0.189c0,0.252-0.189,0.189-0.315,0.22
			c-0.158,0.032-0.788,0.063-1.134,0.063c-0.22,0-0.252-0.157-0.252-0.315c0,0.85,0.032-2.898,0.032-4.598
			c-0.032-0.661,0-2.11,0-3.37v-2.33l-2.551,0.063c-1.354,0.032-2.929,0.032-3.653,0.032h-2.96c-0.599,0-1.197,0-1.858-0.032
			c0,0.252,0,0.536-0.031,0.819c-0.031,0.504-0.063,1.196-0.063,1.921s-0.032,2.079-0.032,3.401c0,1.323,0.032,2.646,0.158,3.275
			c0.032,0.189,0.063,0.347,0.063,0.473c0,0.756-0.63,0.63-1.103,0.63c-0.598-0.032-1.638,0-2.519,0.094
			c-0.882,0.094-0.724-0.63-0.724-1.984c0-1.292-0.063-8.976-0.063-10.897c0-2.016,0.063-7.369,0.063-8.157
			c0-0.945,0.284-0.976,0.598-0.976c0.221,0,0.441,0.031,0.693,0.031c0.22,0,0.44-0.031,0.724-0.063
			c0.158-0.032,0.346-0.032,0.536-0.032c0.535,0,1.07,0.064,1.512,0.064c0.598,0,0.472,0.566,0.472,0.944s-0.032,2.016-0.126,3.748
			l-0.126,3.118l-0.094,1.858l1.89,0.063C144.886,90.772,146.146,90.836,147.06,90.836z"/>
		<path style="fill:#FFB569;" d="M159.305,90.898c0-2.425-0.158-2.646-0.158-4.535c0-1.89,0.063-3.748,0.095-4.629
			c0-0.598,0.252-0.693,0.599-0.693c0.157,0,0.314,0.031,0.472,0.031c0.472,0,1.039,0.095,2.456,0.095
			c1.354,0,3.496-0.283,4.724-0.283c1.292,0,2.897,0.126,3.496,0.126c0.599,0,0.662,0.283,0.662,0.882
			c0,0.661,0.126,1.417,0.126,2.394c0,0.283,0,0.63-0.094,1.165c-0.032,0.378-0.221,0.473-0.441,0.473
			c-0.22,0-0.504-0.126-0.692-0.158c-0.473-0.094-1.417-0.094-2.74-0.094c-0.787,0-1.606-0.063-2.394-0.063
			c-0.283,0-0.567,0-0.85,0.032c-0.472,0.032-1.07,0.063-1.669,0.063c-0.756,0-1.48-0.031-1.669-0.031
			c-0.347,0-0.315,0.157-0.315,0.63c0,0.504-0.094,1.921-0.094,3.023v1.858c0,0.346,0,0.662,0.032,1.008
			c0.252,0.032,0.535,0.032,0.85,0.032c0.536,0.031,1.323,0.031,2.205,0.031c1.165,0,2.583-0.126,3.338-0.126
			c0.756,0,1.197,0.095,1.544,0.095c0.346,0,0.409,0.157,0.409,0.378c0,0.22-0.063,0.378-0.063,0.976
			c0,0.598,0.032,0.882,0.032,1.669c0,0.409-0.095,0.504-0.284,0.504c-0.126,0-0.346-0.095-0.567-0.095
			c-0.504,0-1.165-0.063-3.149-0.063c-2.016,0-3.37,0.252-3.716,0.252c-0.22,0-0.346,0-0.41-0.032c-0.094,0-0.157,0-0.188-0.031
			v3.149c0.094,0,0.22,0,0.346-0.031c0.22,0,0.536-0.032,0.882-0.032c0.724,0,2.299-0.032,3.716-0.032
			c1.039,0,2.708,0.063,3.968,0.063c0.567,0,1.04-0.032,1.323-0.032c0.535,0,0.63,0.284,0.63,0.662c0,0.188-0.031,0.44-0.031,0.63
			c0,0.63-0.032,1.291-0.032,2.204c0,0.882-0.504,0.693-1.512,0.693c-1.04,0-4.063-0.063-5.543-0.063
			c-1.512,0-4.567,0.126-4.976,0.126c-0.063,0-0.126,0.032-0.189,0.032c-0.284,0-0.252-0.252-0.252-0.536
			c-0.032-0.346-0.032-0.787-0.032-1.165c0-0.378-0.062-0.693-0.062-1.354V95.78C159.085,93.891,159.305,93.324,159.305,90.898z"/>
		<path style="fill:#FFB569;" d="M189.787,101.512c0.032,0,0.064,0,0.064,0c0.346,0,0.22,0.189,0.22,0.41
			c-0.032,0.22,0.063,0.724,0.063,1.102c0,0.41-0.409,0.315-0.913,0.315c-0.536,0-3.685-0.283-4.787-0.283
			c-1.071,0-7.433,0.283-7.968,0.283c-0.536,0-0.693-0.315-0.693-0.63c0-0.252,0-1.165,0-2.457c0-1.134,0.126-9.542,0.126-10.55
			c0-1.008-0.283-7.338-0.283-8.22c0-0.41,0.157-0.536,0.409-0.536c0.315,0,0.725,0.189,1.134,0.189
			c0.441,0.063,1.26,0.126,2.11,0.126c0.566,0,1.102-0.032,1.606-0.095c1.26-0.157,0.756,0.693,0.756,1.449
			c0,0.536-0.189,4.189-0.189,5.575c0,1.386,0.095,6.487,0.095,7.086c0,0.567-0.063,2.897-0.063,3.433
			c0,0.126-0.031,0.378-0.031,0.63c0,0.284,0.031,0.567,0.031,0.882l0.063,1.102l4.503,0.157L189.787,101.512z"/>
		<path style="fill:#FFB569;" d="M206.349,87.687c0,4.692-3.779,5.637-5.134,5.637c-0.661,0-1.857,0.094-2.865,0.189
			c-0.599,0.063-1.229,0.126-1.89,0.157c-0.032,1.449-0.064,2.771-0.064,3.937c0,2.016,0,4.094,0.095,4.441
			c0.157,0.661-0.63,1.039-1.039,0.85c-0.095-0.032-0.284-0.032-0.536-0.032c-0.567,0-1.48,0.063-2.016,0.126
			c-0.756,0.095-0.819-0.44-0.819-1.039c0-0.599,0.063-2.583,0.063-3.905c0-1.134,0.252-10.456,0.252-14.141
			c0-0.662,0-1.134-0.032-1.355c-0.031-0.347-0.063-0.599-0.063-0.819c0-0.662,0.157-0.85,0.378-0.819
			c0.283,0.031,1.196,0.063,1.984,0.063c0.346,0,1.795-0.063,3.464-0.063c1.039,0,2.173,0.031,3.181,0.095
			C203.893,81.167,206.349,82.994,206.349,87.687z M200.334,91.056c1.102,0,3.181-0.472,3.181-3.181
			c0-2.677-1.165-3.811-3.087-4.188c-1.921-0.378-3.212-0.409-3.716-0.378c0,0.441,0,0.882-0.032,1.323
			c-0.032,0.756-0.063,1.669-0.158,2.52c-0.094,0.85-0.094,1.764-0.062,2.488l0.062,1.229l1.48,0.095
			C198.854,91.056,199.735,91.056,200.334,91.056z"/>
	</g>
	<g>
		<path style="fill:#381509;" d="M116.295,79.962c0.031,0.107-0.042,0.316-0.217,0.628c-0.175,0.313-0.404,0.671-0.686,1.074
			c-0.282,0.404-0.594,0.838-0.938,1.303c-0.343,0.465-0.663,0.903-0.96,1.314c-0.297,0.411-0.552,0.777-0.766,1.097
			c-0.213,0.32-0.328,0.541-0.343,0.663c-0.091,0.457-0.225,1.044-0.4,1.76c-0.175,0.716-0.396,1.47-0.663,2.263
			c-0.267,0.792-0.572,1.584-0.915,2.377c-0.343,0.792-0.731,1.509-1.166,2.148c-0.434,0.64-0.911,1.158-1.428,1.554
			c-0.519,0.396-1.083,0.594-1.691,0.594c-0.274,0-0.511-0.072-0.709-0.217c-0.198-0.145-0.366-0.332-0.503-0.56
			c-0.137-0.229-0.248-0.484-0.332-0.766c-0.084-0.282-0.141-0.56-0.171-0.834c0.016-0.305,0.16-0.72,0.434-1.246
			c0.274-0.525,0.613-1.085,1.017-1.68c0.404-0.594,0.842-1.2,1.315-1.817c0.472-0.617,0.91-1.177,1.314-1.68
			c0.404-0.503,0.747-0.918,1.029-1.246c0.282-0.328,0.43-0.506,0.446-0.537c0.03-0.046,0.053-0.087,0.068-0.126
			c0.015-0.038,0.038-0.08,0.068-0.126c0.061-0.152,0.133-0.426,0.217-0.823c0.084-0.396,0.16-0.812,0.229-1.246
			c0.069-0.434,0.126-0.838,0.171-1.211c0.046-0.373,0.069-0.613,0.069-0.72c0.015-0.152,0.011-0.294-0.012-0.423
			c-0.023-0.129-0.049-0.118-0.08,0.034c-0.03,0.183-0.102,0.45-0.217,0.8c-0.114,0.351-0.252,0.739-0.412,1.165
			c-0.16,0.427-0.339,0.857-0.537,1.292c-0.198,0.434-0.408,0.823-0.628,1.166c-0.221,0.343-0.446,0.617-0.674,0.823
			c-0.228,0.206-0.442,0.286-0.64,0.24c-0.198-0.015-0.408-0.069-0.628-0.16c-0.221-0.091-0.442-0.206-0.663-0.343
			c-0.221-0.137-0.427-0.289-0.617-0.457c-0.191-0.167-0.347-0.328-0.469-0.48c-0.091-0.198-0.133-0.51-0.125-0.937
			c0.008-0.426,0.031-0.91,0.068-1.451c0.039-0.541,0.08-1.124,0.126-1.749c0.045-0.625,0.064-1.249,0.057-1.874
			c-0.008-0.625-0.054-1.219-0.137-1.783c-0.083-0.563-0.232-1.059-0.446-1.485c-0.03-0.03-0.045-0.069-0.045-0.114
			c0-0.046,0.015-0.076,0.045-0.092c0.274-0.106,0.575-0.141,0.903-0.103c0.328,0.038,0.644,0.114,0.949,0.229
			c0.305,0.114,0.575,0.244,0.811,0.389c0.236,0.145,0.392,0.271,0.469,0.377c0.061,0.137,0.072,0.442,0.034,0.914
			c-0.038,0.473-0.091,1.025-0.16,1.657c-0.069,0.632-0.141,1.295-0.217,1.988c-0.077,0.694-0.13,1.334-0.16,1.92
			c-0.031,0.587-0.023,1.071,0.023,1.452c0.046,0.381,0.152,0.571,0.32,0.571c0.137,0,0.324-0.225,0.56-0.674
			c0.236-0.449,0.491-1.006,0.766-1.668c0.274-0.663,0.549-1.379,0.823-2.148c0.274-0.769,0.526-1.466,0.754-2.091
			c0.229-0.625,0.415-1.127,0.56-1.508c0.145-0.381,0.217-0.518,0.217-0.412c0.106-0.076,0.225-0.103,0.354-0.08
			c0.129,0.023,0.263,0.073,0.4,0.148c0.137,0.077,0.263,0.168,0.377,0.274c0.115,0.107,0.209,0.214,0.286,0.32
			c0.015,0.046,0.034,0.172,0.057,0.377c0.022,0.206,0.034,0.525,0.034,0.96c0,0.434-0.02,0.998-0.057,1.691
			c-0.038,0.693-0.103,1.558-0.194,2.594c0.015,0.031,0.026,0.084,0.034,0.16c0.007,0.077,0.026,0.129,0.057,0.16
			c0.076,0.076,0.206,0.031,0.389-0.137c0.183-0.167,0.389-0.392,0.617-0.674c0.229-0.282,0.464-0.598,0.708-0.949
			c0.244-0.35,0.464-0.678,0.663-0.982c0.198-0.305,0.362-0.56,0.492-0.766c0.129-0.206,0.202-0.309,0.217-0.309
			C116.082,79.695,116.234,79.764,116.295,79.962z M105.828,95.184c0.335,0,0.651-0.126,0.949-0.377
			c0.297-0.251,0.575-0.579,0.834-0.983c0.259-0.404,0.495-0.857,0.708-1.36c0.213-0.503,0.408-1.017,0.583-1.542
			c0.175-0.526,0.32-1.029,0.434-1.509c0.114-0.48,0.209-0.895,0.286-1.246c-0.076,0-0.244,0.16-0.503,0.48
			c-0.259,0.32-0.549,0.727-0.869,1.223s-0.648,1.029-0.983,1.6c-0.335,0.571-0.632,1.12-0.891,1.645
			c-0.259,0.526-0.446,0.979-0.56,1.36C105.702,94.856,105.706,95.092,105.828,95.184z"/>
		<path style="fill:#381509;" d="M124.386,80.213c-0.351,0.594-0.77,1.078-1.257,1.451c-0.488,0.374-0.998,0.697-1.531,0.972
			c-0.076,0.091-0.175,0.282-0.297,0.571c-0.122,0.29-0.271,0.625-0.446,1.005c-0.175,0.381-0.381,0.781-0.617,1.2
			c-0.236,0.419-0.511,0.804-0.823,1.154c-0.313,0.351-0.671,0.64-1.074,0.868c-0.404,0.229-0.85,0.343-1.337,0.343
			c-0.32,0-0.637-0.068-0.949-0.205c-0.313-0.137-0.586-0.339-0.823-0.605c-0.236-0.267-0.426-0.586-0.571-0.96
			c-0.145-0.374-0.217-0.796-0.217-1.269c0-0.122,0.02-0.373,0.057-0.754c0.038-0.38,0.111-0.781,0.217-1.2
			c0.107-0.419,0.255-0.796,0.446-1.131c0.19-0.335,0.438-0.526,0.743-0.571c0.122-0.015,0.202-0.031,0.24-0.046
			c0.038-0.015,0.053-0.042,0.046-0.08c-0.008-0.038-0.034-0.095-0.08-0.171c-0.045-0.076-0.091-0.183-0.137-0.32
			c-0.076-0.213-0.179-0.492-0.309-0.834c-0.129-0.343-0.194-0.819-0.194-1.428c0-0.167,0.072-0.449,0.217-0.846
			c0.145-0.396,0.354-0.796,0.628-1.2c0.274-0.403,0.613-0.762,1.017-1.074c0.404-0.312,0.865-0.468,1.383-0.468
			c0.563,0,1.066,0.129,1.509,0.388c0.441,0.259,0.811,0.595,1.108,1.006c0.297,0.412,0.521,0.877,0.674,1.394
			c0.152,0.519,0.221,1.029,0.206,1.532c-0.015,0.518-0.061,0.975-0.137,1.371c-0.076,0.396-0.129,0.671-0.16,0.823
			c-0.031,0.122,0,0.191,0.091,0.206c0.137-0.015,0.301-0.076,0.491-0.183c0.19-0.106,0.385-0.232,0.583-0.377
			c0.198-0.145,0.377-0.289,0.537-0.435c0.16-0.145,0.278-0.263,0.354-0.354c0.046-0.092,0.126-0.114,0.24-0.069
			C124.329,79.962,124.386,80.061,124.386,80.213z M120.135,83.093c-0.503-0.015-0.96-0.099-1.371-0.252
			c-0.412-0.152-0.701-0.229-0.869-0.229c-0.168,0.031-0.324,0.206-0.468,0.525c-0.145,0.32-0.263,0.686-0.354,1.097
			c-0.091,0.412-0.133,0.815-0.126,1.212c0.007,0.396,0.08,0.678,0.217,0.846c0.167,0.259,0.404,0.351,0.708,0.274
			c0.213-0.106,0.446-0.29,0.697-0.549c0.251-0.259,0.491-0.556,0.72-0.891c0.229-0.335,0.423-0.682,0.582-1.04
			C120.032,83.729,120.12,83.398,120.135,83.093z M120.455,81.905c0.106,0,0.206-0.095,0.297-0.286
			c0.092-0.19,0.171-0.442,0.24-0.754c0.068-0.312,0.122-0.659,0.16-1.04c0.038-0.381,0.057-0.754,0.057-1.12
			c0-0.35-0.065-0.689-0.194-1.017c-0.13-0.327-0.305-0.613-0.526-0.857c-0.221-0.244-0.477-0.438-0.766-0.583
			c-0.289-0.145-0.587-0.217-0.892-0.217c-0.274,0-0.51,0.08-0.709,0.24c-0.198,0.16-0.366,0.358-0.502,0.594
			c-0.137,0.237-0.237,0.492-0.297,0.766c-0.061,0.274-0.091,0.534-0.091,0.777c0,1.051,0.293,1.897,0.88,2.537
			C118.699,81.585,119.479,81.905,120.455,81.905z"/>
		<path style="fill:#381509;" d="M134.557,79.939c-0.854,2.24-1.588,3.935-2.206,5.085c-0.617,1.15-1.23,1.726-1.84,1.726
			c-0.457,0.015-0.819-0.114-1.086-0.389c-0.267-0.274-0.468-0.636-0.605-1.085c-0.137-0.449-0.225-0.963-0.263-1.543
			c-0.038-0.579-0.05-1.181-0.035-1.806c0.015-0.121-0.015-0.198-0.091-0.229c-0.076-0.03-0.137,0.023-0.183,0.16
			c-0.061,0.213-0.16,0.499-0.297,0.857c-0.137,0.358-0.286,0.743-0.446,1.154c-0.16,0.412-0.335,0.823-0.525,1.234
			c-0.191,0.411-0.381,0.789-0.571,1.131c-0.191,0.343-0.37,0.621-0.537,0.834c-0.168,0.213-0.313,0.32-0.435,0.32
			c-0.183,0-0.392-0.02-0.628-0.057c-0.236-0.039-0.461-0.103-0.674-0.194c-0.213-0.091-0.404-0.213-0.571-0.366
			c-0.168-0.152-0.282-0.343-0.343-0.571c-0.198-0.747-0.286-1.569-0.263-2.469c0.023-0.899,0.118-1.779,0.286-2.64
			c0.167-0.861,0.392-1.661,0.674-2.4c0.282-0.739,0.583-1.322,0.903-1.749c0.061,0,0.163,0.02,0.308,0.057
			c0.145,0.038,0.29,0.088,0.435,0.148c0.144,0.062,0.27,0.13,0.377,0.206c0.106,0.076,0.16,0.152,0.16,0.229
			c-0.107,0.244-0.232,0.617-0.377,1.12c-0.145,0.503-0.274,1.063-0.388,1.68c-0.114,0.617-0.214,1.253-0.297,1.908
			c-0.084,0.655-0.129,1.254-0.137,1.794c-0.008,0.541,0.038,0.983,0.137,1.326c0.099,0.343,0.263,0.514,0.492,0.514
			c0.107,0,0.274-0.236,0.503-0.709c0.229-0.472,0.48-1.063,0.754-1.771c0.274-0.709,0.56-1.466,0.857-2.274
			c0.297-0.808,0.568-1.55,0.812-2.229c0.244-0.678,0.446-1.227,0.605-1.646c0.16-0.419,0.247-0.59,0.263-0.514
			c0.061-0.031,0.186-0.042,0.377-0.035c0.19,0.008,0.385,0.039,0.583,0.092c0.198,0.053,0.373,0.125,0.525,0.217
			c0.152,0.091,0.229,0.206,0.229,0.343c0,0.016-0.031,0.217-0.091,0.606c-0.061,0.389-0.133,0.877-0.217,1.463
			c-0.083,0.586-0.16,1.219-0.229,1.897c-0.068,0.678-0.106,1.303-0.114,1.874c-0.008,0.571,0.026,1.051,0.103,1.44
			c0.076,0.389,0.221,0.583,0.434,0.583c0.106,0,0.244-0.11,0.412-0.331c0.167-0.221,0.35-0.503,0.548-0.846
			c0.198-0.343,0.404-0.728,0.617-1.154c0.213-0.426,0.415-0.846,0.606-1.257c0.19-0.412,0.357-0.796,0.502-1.154
			c0.145-0.358,0.248-0.636,0.309-0.835c0.091,0,0.232,0.023,0.423,0.069C134.53,79.802,134.602,79.863,134.557,79.939z"/>
		<path style="fill:#381509;" d="M137.116,74.248c0.045,0.076,0.026,0.29-0.058,0.64c-0.083,0.351-0.194,0.743-0.331,1.177
			c-0.137,0.434-0.286,0.861-0.446,1.28c-0.16,0.419-0.301,0.735-0.423,0.949c-0.031,0.046-0.034,0.068-0.011,0.068
			c0.022,0,0.034,0.016,0.034,0.046c0.168,0.198,0.362,0.358,0.583,0.48c0.221,0.122,0.434,0.251,0.64,0.389s0.396,0.297,0.571,0.48
			c0.175,0.183,0.309,0.427,0.4,0.731c0.092,0.305,0.092,0.716,0,1.234c-0.091,0.518-0.217,1.086-0.377,1.703
			c-0.16,0.617-0.335,1.242-0.525,1.874c-0.191,0.632-0.347,1.208-0.469,1.726c-0.122,0.518-0.183,0.94-0.183,1.269
			c0,0.327,0.106,0.491,0.32,0.491c0.152,0,0.358-0.168,0.617-0.503c0.259-0.335,0.54-0.769,0.846-1.303
			c0.304-0.533,0.621-1.131,0.948-1.794c0.328-0.663,0.628-1.322,0.903-1.977c0.274-0.655,0.514-1.272,0.72-1.851
			c0.205-0.579,0.346-1.051,0.422-1.417c0-0.046,0.046-0.08,0.137-0.103c0.092-0.022,0.187-0.022,0.286,0
			c0.099,0.023,0.183,0.073,0.252,0.149c0.069,0.076,0.08,0.183,0.035,0.32c-0.092,0.335-0.244,0.815-0.458,1.44
			c-0.213,0.625-0.465,1.307-0.754,2.045c-0.29,0.739-0.606,1.494-0.949,2.263c-0.343,0.77-0.689,1.466-1.04,2.091
			s-0.701,1.135-1.051,1.532c-0.351,0.396-0.67,0.594-0.96,0.594c-0.213,0-0.454-0.035-0.72-0.103
			c-0.267-0.069-0.514-0.175-0.743-0.32c-0.229-0.145-0.422-0.339-0.582-0.583c-0.16-0.244-0.24-0.548-0.24-0.914
			c0-0.534,0.076-1.123,0.229-1.771c0.152-0.647,0.324-1.269,0.515-1.863c0.19-0.594,0.377-1.123,0.56-1.588
			c0.183-0.465,0.297-0.789,0.343-0.971c0.076-0.213,0.099-0.412,0.068-0.594c-0.031-0.183-0.168-0.328-0.412-0.435
			c-0.061-0.045-0.255-0.16-0.583-0.343c-0.328-0.183-0.674-0.415-1.04-0.697c-0.366-0.282-0.697-0.59-0.994-0.925
			c-0.297-0.335-0.446-0.678-0.446-1.029c0.016-0.259,0.111-0.659,0.286-1.2c0.175-0.541,0.408-1.093,0.697-1.657
			c0.29-0.563,0.621-1.074,0.994-1.531c0.373-0.457,0.758-0.724,1.154-0.8c0.152,0,0.301,0.042,0.446,0.126
			c0.145,0.084,0.274,0.187,0.388,0.309c0.114,0.122,0.206,0.259,0.274,0.412C137.059,73.943,137.101,74.096,137.116,74.248z
			 M134.716,77.402c0,0.031,0.026,0.08,0.08,0.149c0.053,0.068,0.115,0.126,0.183,0.171c0.068,0.045,0.141,0.068,0.217,0.068
			c0.076,0,0.145-0.053,0.206-0.16c0.091-0.168,0.152-0.323,0.183-0.468c0.031-0.145,0.069-0.324,0.114-0.537
			c0.106-0.533,0.095-0.849-0.034-0.949c-0.129-0.099-0.255-0.026-0.377,0.217c-0.107,0.213-0.202,0.423-0.286,0.628
			C134.918,76.728,134.823,77.021,134.716,77.402z"/>
	</g>
</g>
</svg>
